<?xml version="1.0" encoding="UTF-8" standalone="no"?>
<!-- Created with Inkscape (http://www.inkscape.org/) -->

<svg
   width="210mm"
   height="297mm"
   viewBox="0 0 210 297"
   version="1.1"
   id="svg1"
   inkscape:version="1.3.2 (091e20e, 2023-11-25, custom)"
   sodipodi:docname="dibujo.svg"
   xmlns:inkscape="http://www.inkscape.org/namespaces/inkscape"
   xmlns:sodipodi="http://sodipodi.sourceforge.net/DTD/sodipodi-0.dtd"
   xmlns="http://www.w3.org/2000/svg"
   xmlns:svg="http://www.w3.org/2000/svg">
  <sodipodi:namedview
     id="namedview1"
     pagecolor="#ffffff"
     bordercolor="#000000"
     borderopacity="0.25"
     inkscape:showpageshadow="2"
     inkscape:pageopacity="0.0"
     inkscape:pagecheckerboard="0"
     inkscape:deskcolor="#d1d1d1"
     inkscape:document-units="mm"
     inkscape:zoom="0.45344416"
     inkscape:cx="395.8591"
     inkscape:cy="561.25984"
     inkscape:window-width="1366"
     inkscape:window-height="705"
     inkscape:window-x="-8"
     inkscape:window-y="-8"
     inkscape:window-maximized="1"
     inkscape:current-layer="layer1" />
  <defs
     id="defs1" />
  <g
     inkscape:label="Capa 1"
     inkscape:groupmode="layer"
     id="layer1">
    <ellipse
       style="fill:#000000;stroke-width:0.264583"
       id="path1"
       cx="99.777992"
       cy="70.89489"
       rx="24.506876"
       ry="25.38212" />
    <ellipse
       style="fill:#000000;stroke-width:0.264583"
       id="path2"
       cx="125.82555"
       cy="103.38848"
       rx="55.815678"
       ry="6.126719"
       transform="rotate(31.344254)" />
    <ellipse
       style="fill:#000000;stroke-width:0.264583"
       id="path2-6"
       cx="-225.34706"
       cy="97.168655"
       rx="55.815678"
       ry="6.126719"
       transform="rotate(-91.382027)" />
    <path
       style="fill:none;stroke-width:0.264583"
       id="path7"
       d="m 85.418249,124.61725 c -1.95712,-1.88857 -3.862607,-3.82348 -5.85584,-5.67591 -2.294038,-1.98376 -4.807315,-3.68621 -7.334237,-5.35391 -1.927773,-1.26078 -3.643511,-2.80873 -5.523008,-4.13043 -3.843147,-2.49872 -7.938592,-4.57533 -12.090013,-6.50565 -2.895947,-1.43813 -5.944325,-2.38106 -9.102932,-3.017186 -3.084676,-0.636688 -6.21984,-0.957363 -9.341521,-1.349791 -2.409836,-0.326728 -4.839875,-0.438732 -7.268393,-0.506023 -1.673878,-0.141828 -3.191502,0.229711 -4.452898,1.348348 -1.023409,1.275342 -1.014301,3.044872 -1.098085,4.609392 -0.08192,2.04707 0.126011,4.10401 0.408645,6.13015 0.262046,2.28674 1.228735,4.37483 2.144539,6.45663 1.105266,2.25186 2.446762,4.35626 3.935482,6.36992 1.410611,2.22807 3.258416,4.09162 5.06493,5.99136 1.713346,1.73781 3.382121,3.49562 5.343369,4.95396 2.744787,2.07342 5.793462,3.67908 8.770805,5.3839 -0.760664,-0.42166 -1.49564,-0.89341 -2.281992,-1.26496 -0.379611,-0.17937 0.706591,0.45375 1.056439,0.68588 1.427266,0.94701 2.822125,1.92476 4.294362,2.8022 3.318026,1.86806 6.676512,3.76793 10.249971,5.12051 1.851028,0.55378 3.642006,1.28233 5.466221,1.91479 1.87185,0.35791 3.677213,0.84244 5.42078,1.61424 1.300221,0.70196 2.75476,1.04681 4.099404,1.63647 0.0752,0.033 1.84086,0.95361 1.863574,0.96543 1.605447,0.91795 3.23863,1.81659 4.971349,2.47197 0,0 -3.073133,-2.41381 -3.073133,-2.41381 v 0 c -1.698275,-0.69507 -3.313509,-1.57488 -4.910664,-2.47458 -1.937276,-0.99563 -3.986884,-1.6861 -5.973521,-2.57558 -1.769446,-0.74257 -3.600109,-1.1753 -5.463757,-1.61354 -1.809052,-0.64014 -3.600982,-1.32919 -5.432415,-1.90483 -1.512908,-0.60271 -2.984338,-1.30103 -4.451283,-2.0082 -0.408565,-0.19696 -1.573501,-0.88817 -1.218084,-0.6064 0.6222,0.49328 1.352283,0.83255 2.028426,1.24883 -3.291367,-1.88781 -6.216518,-4.35574 -9.647005,-6.02595 -0.324593,-0.18392 -1.292545,-0.74559 -0.97378,-0.55175 5.577255,3.39158 -0.171842,-0.14894 -1.205693,-0.98149 -0.42386,-0.30623 -1.377077,-0.98143 -1.773185,-1.32193 -1.293193,-1.11163 -2.369661,-2.47183 -3.656086,-3.59265 -1.785345,-1.89077 -3.633454,-3.72047 -5.03486,-5.92942 -1.496017,-1.99476 -2.848729,-4.06323 -3.974692,-6.29354 -0.914599,-2.04836 -1.87203,-4.10665 -2.168951,-6.35504 -0.332706,-1.99317 -0.47334,-4.02587 -0.414531,-6.04648 0.06017,-1.45497 0.0146,-3.13206 0.960348,-4.32437 1.213352,-1.02856 2.688262,-1.24683 4.248271,-1.13818 2.407965,0.0623 4.815269,0.19118 7.205224,0.50607 3.114452,0.38825 6.243936,0.70145 9.315373,1.36842 3.122445,0.66863 6.137918,1.6348 9.008694,3.05537 1.867445,0.87855 1.644859,0.76019 3.472336,1.67339 0.526722,0.26321 1.884276,1.2994 1.576126,0.79764 -0.357325,-0.58182 -1.19045,-0.6744 -1.745044,-1.07268 -0.713613,-0.51249 2.690535,1.6072 2.257613,1.36019 1.928987,1.27261 3.611938,2.8955 5.560539,4.15111 2.530504,1.67211 5.058418,3.35661 7.387278,5.30782 1.962806,1.81983 3.831304,3.72431 5.728602,5.60798 z" />
    <ellipse
       style="fill:none;stroke-width:0.264583"
       id="path8"
       cx="106.48821"
       cy="128.07761"
       rx="23.048132"
       ry="29.4666" />
    <ellipse
       style="fill:#000000;stroke-width:0.264583"
       id="path9"
       cx="108.67254"
       cy="132.51115"
       rx="14.003929"
       ry="46.971512"
       transform="rotate(3.9876196)" />
    <path
       style="fill:#000000;stroke-width:0.264583"
       id="path12"
       d="m 110.47252,110.92634 c 1.2938,0.90152 2.24355,2.14711 3.15891,3.40629 0.8009,1.03654 1.37077,2.18472 1.82757,3.40495 0.52464,1.6148 0.56603,3.32419 0.88114,4.9845 0.41982,1.92128 0.7101,3.86363 0.86152,5.8235 0.1056,1.83019 0.10885,3.66469 0.10904,5.49738 0.0319,2.15936 0.0204,4.31234 -0.14818,6.46573 -0.19188,2.07394 -0.33471,4.14963 -0.4013,6.23116 -0.0554,1.70953 -0.0459,3.42007 -0.0513,5.13023 0.0746,1.52651 -0.0322,3.02815 -0.25633,4.53571 -0.18426,1.30236 -0.2276,2.61632 -0.68,3.86045 -0.52527,1.27228 -1.03904,2.53794 -1.64378,3.77455 -0.58171,1.05612 -1.13247,2.13922 -1.79807,3.14491 -0.81658,1.03159 -2.06439,1.22934 -3.29526,1.38489 -0.85733,0.0665 -0.43013,0.0406 -1.28159,0.0779 0,0 3.18337,2.287 3.18337,2.287 v 0 c 0.86221,-0.0543 0.42917,-0.0185 1.29907,-0.10788 1.3313,-0.21085 2.62618,-0.52429 3.48116,-1.65749 0.68132,-1.01641 1.22238,-2.12562 1.8165,-3.19506 0.60699,-1.25011 1.12969,-2.52418 1.65524,-3.8106 0.48692,-1.26352 0.57017,-2.59416 0.7259,-3.93044 0.22093,-1.52868 0.34878,-3.047 0.26552,-4.59485 -0.004,-1.70909 0.002,-3.41828 0.0324,-5.12715 0.0562,-2.07981 0.176,-4.15714 0.36203,-6.22958 0.17601,-2.15716 0.23447,-4.3105 0.1978,-6.47541 -0.004,-1.84135 -0.002,-3.68342 -0.0985,-5.52292 -0.13285,-1.97842 -0.44214,-3.93204 -0.85568,-5.87154 -0.32496,-1.66908 -0.34041,-3.38267 -0.81488,-5.02012 -0.43577,-1.25764 -0.96887,-2.44909 -1.78682,-3.51149 -0.93426,-1.24059 -1.80501,-2.54968 -3.06925,-3.49263 z" />
    <path
       style="fill:#000000;stroke-width:0.264583"
       id="path13"
       d="m 92.510955,105.61983 c -1.688142,-0.0674 -3.208575,0.48026 -4.556643,1.45884 -1.679673,1.13968 -2.797598,2.86821 -4.076933,4.41073 -1.10958,1.80227 -2.472872,3.24208 -4.056205,4.62635 -2.08261,1.48132 -4.435134,2.55257 -6.837384,3.40256 -1.841659,0.52457 -3.693977,1.02162 -5.563907,1.43615 -1.514472,0.33514 -3.06529,0.39145 -4.609563,0.43136 -1.479084,0.11503 -2.913057,-0.029 -4.363331,-0.29003 0.443611,0.49614 -2.269762,-1.02413 -1.617876,-0.66923 4.84302,2.63658 2.816873,1.65222 1.479539,0.52604 -1.36606,-1.2793 -2.535327,-2.74966 -3.783841,-4.14157 -0.657177,-0.74728 -0.326112,-0.39006 -0.990901,-1.07377 0,0 -3.615605,-1.49487 -3.615605,-1.49487 v 0 c 0.692115,0.65551 0.35271,0.30484 1.013518,1.05653 1.248359,1.40436 2.465834,2.84099 3.773974,4.18858 1.952442,1.78798 4.287845,3.34299 6.877915,3.97077 1.455023,0.24387 2.908758,0.28357 4.383416,0.20897 1.560925,-0.0384 3.125906,-0.12998 4.649639,-0.49837 1.869982,-0.4424 3.738631,-0.91165 5.571085,-1.49042 2.415955,-0.91604 4.790686,-2.01035 6.888234,-3.53519 0.486521,-0.41497 1.410962,-1.1803 1.872173,-1.65809 0.869773,-0.90103 1.501238,-2.0087 2.245926,-3.00631 1.25362,-1.52372 2.374516,-3.20478 4.043109,-4.30903 1.347509,-0.91025 2.826557,-1.35344 4.467238,-1.22974 z" />
    <ellipse
       style="fill:#ff0000;stroke-width:0.299239"
       id="path14"
       cx="99.194496"
       cy="141.49803"
       rx="14.003929"
       ry="28.299608" />
    <path
       style="fill:#ff0000;stroke-width:0.264583"
       id="path15"
       d="m 106.96308,117.06487 c 1.28456,-0.7598 2.42595,-1.72652 3.54315,-2.70858 1.10912,-1.00686 1.92505,-2.17537 2.3871,-3.59605 0.2633,-0.97144 0.29637,-1.97924 0.32131,-2.97892 0,0 -3.49487,-1.79013 -3.49487,-1.79013 v 0 c -0.0171,0.96541 -0.0347,1.9392 -0.26558,2.8825 -0.41421,1.36432 -1.19499,2.46783 -2.2542,3.42596 -1.10425,0.96024 -2.2326,1.9222 -3.54576,2.58812 z" />
    <path
       style="fill:#ff0000;stroke-width:0.264583"
       id="path16"
       d="m 100.27575,113.73558 c -0.668918,-1.6368 -1.294383,-3.2924 -1.886184,-4.95879 -0.481785,-1.48645 -1.019387,-2.9483 -1.318355,-4.48508 0,0 -3.523528,-1.71373 -3.523528,-1.71373 v 0 c 0.284133,1.56843 0.831556,3.04943 1.332426,4.55837 0.584165,1.6598 1.241689,3.29368 1.786956,4.96655 z" />
    <path
       style="fill:#803300;stroke-width:0.264583"
       id="path17"
       d="m 123.90185,60.364697 c 1.19057,-1.069946 2.35115,-2.175253 3.58882,-3.194148 1.31672,-0.96943 2.6985,-1.831731 4.23707,-2.392997 0.91964,-0.183854 1.78111,-0.636648 2.71274,-0.770848 0.36932,-0.0532 1.16715,-0.02663 1.5074,-0.02244 0.96766,0.07905 1.93087,0.276259 2.82601,0.662829 0.27279,0.117808 1.04734,0.561662 0.78945,0.414049 -2.98229,-1.707058 -3.33638,-2.10547 -2.03335,-0.931749 1.59911,1.645311 2.16498,3.902009 3.04933,5.95318 0.82768,1.670564 1.38272,3.436313 1.66596,5.274641 0.16289,1.333997 0.15694,2.681253 0.16032,4.022971 0.0582,2.538529 -0.47911,5.023445 -0.90889,7.510201 -0.51955,2.67227 -0.99911,5.350719 -1.27652,8.059671 -0.35756,2.150221 0.18372,3.389519 1.66455,4.919678 2.47859,2.076656 5.48881,3.58126 8.27003,5.174279 -4.81835,-2.790126 -1.72871,-0.960382 -0.6914,-0.324374 0,0 3.62152,1.402324 3.62152,1.402324 v 0 c -1.9489,-1.209871 -3.95593,-2.319547 -5.92549,-3.496464 5.51757,3.233902 -0.75506,-0.371845 -1.67737,-1.268942 -1.69402,-1.588635 -2.09477,-2.255303 -1.83219,-4.618336 0.23183,-2.711079 0.65932,-5.397928 1.20478,-8.063568 0.43412,-2.49109 1.03037,-4.981295 1.02781,-7.522295 0.007,-1.358336 0.0386,-2.721541 -0.12868,-4.072983 -0.27616,-1.879705 -0.81837,-3.697753 -1.68277,-5.396849 -0.92668,-2.051036 -1.4144,-4.337248 -2.93881,-6.063466 -2.05815,-2.224445 -5.30065,-3.670713 -8.33372,-3.924184 -1.50915,0.01048 -2.892,0.394237 -4.30906,0.905267 -1.5529,0.615047 -2.96289,1.497827 -4.29141,2.508374 -1.2391,1.017916 -2.38498,2.145519 -3.63969,3.141408 z" />
    <path
       style="fill:#803300;stroke-width:0.264583"
       id="path18"
       d="m 122.59774,58.933177 c 0.78057,-1.984108 1.90487,-3.819475 3.07615,-5.593995 0.95106,-1.4785 2.2767,-2.178683 3.95171,-2.50094 0.21427,0.0039 0.43027,-0.01556 0.64282,0.01183 0.51939,0.06693 0.74982,0.204946 1.22155,0.420492 0.20276,0.09264 0.79804,0.395999 0.60611,0.282614 -5.14157,-3.037355 -3.36019,-1.929378 -2.33261,-1.283948 0.89499,0.626115 1.68255,1.383077 2.42127,2.183418 1.02371,0.951577 1.51937,2.180497 1.97313,3.466846 0.47905,1.561523 0.56113,3.203223 0.62214,4.824468 0.0213,1.808361 0.32833,3.598849 0.6189,5.379257 0.30854,1.928535 0.44085,3.875929 0.69604,5.811258 0.14537,1.621576 0.42306,3.212452 0.90959,4.765778 0.38507,1.31558 0.60964,2.649659 1.06812,3.945207 0.39269,1.527178 0.72087,3.057203 1.24654,4.546981 0.65201,1.500717 1.14816,3.064264 1.79819,4.565007 1.52783,2.871095 4.717,4.086855 7.43839,5.581484 0,0 -3.03904,-2.448296 -3.03904,-2.448296 v 0 c -0.91779,-0.494792 -3.30513,-1.794282 1.86021,1.145908 0.27855,0.158554 -0.54811,-0.334097 -0.80548,-0.525121 -0.49124,-0.364604 -1.07877,-0.890778 -1.4526,-1.38021 -0.17795,-0.232973 -0.30433,-0.501147 -0.4565,-0.751721 -0.68356,-1.475592 -1.13367,-3.044748 -1.79864,-4.529052 -0.5197,-1.492626 -0.96702,-2.988731 -1.24474,-4.549842 -0.47446,-1.29463 -0.73043,-2.603198 -1.07318,-3.933362 -0.51237,-1.535321 -0.83705,-3.102168 -0.97379,-4.718867 -0.26224,-1.939047 -0.3876,-3.891256 -0.69972,-5.823908 -0.27384,-1.76413 -0.57994,-3.535693 -0.61423,-5.324215 -0.0578,-1.650503 -0.13254,-3.317441 -0.55919,-4.921674 -0.43874,-1.312293 -0.86829,-2.623568 -1.89788,-3.606524 -0.732,-0.827633 -1.50715,-1.59979 -2.37801,-2.281042 -2.08278,-1.327055 -4.38433,-3.274259 -7.01101,-3.084523 -1.73237,0.415427 -3.10051,1.23667 -4.0669,2.785586 -1.18857,1.825736 -2.29848,3.707596 -3.23546,5.676199 z" />
    <path
       style="fill:#803300;stroke-width:0.264583"
       id="path19"
       d="m 123.22798,61.967916 c 0.53337,-1.584992 1.43291,-2.924042 2.4487,-4.2335 1.16974,-1.74335 2.7156,-3.142125 4.2841,-4.51213 1.3993,-1.443013 3.08762,-2.249747 5.00556,-2.741538 1.51694,-0.326858 3.07507,-0.338701 4.61965,-0.344972 0.22986,-0.177276 2.12923,0.625957 2.02853,0.565462 -5.18745,-3.116109 -2.36889,-1.342271 -1.31869,-0.50375 1.37589,1.137589 2.72553,2.310061 3.96044,3.600524 0.88544,1.102928 1.89639,2.139233 2.62795,3.354837 0.97882,1.73283 1.52402,3.664611 1.9678,5.592678 0.47353,2.613464 1.38428,5.125558 2.06994,7.689334 0.60833,2.191427 0.7296,4.464015 0.79891,6.724263 0.0655,2.00547 0.0517,4.003887 -0.13056,6.001869 -0.21197,1.693281 -0.68855,3.325657 -1.13627,4.965428 -0.34959,1.251183 -0.43002,2.543807 -0.47337,3.834598 0.10375,2.766848 2.81652,3.346855 5.01459,4.582186 0,0 -3.08046,-2.446723 -3.08046,-2.446723 v 0 c 0.9639,0.575056 1.92862,1.148744 2.8917,1.725168 0.14577,0.08725 -0.30311,-0.156692 -0.43976,-0.257638 -0.59552,-0.439939 -0.86934,-1.090282 -0.90375,-1.814299 0.0402,-1.262128 0.11041,-2.528755 0.42886,-3.75717 0.43491,-1.668817 0.90784,-3.326035 1.12834,-5.042863 0.19845,-2.013508 0.23676,-4.024839 0.14979,-6.047695 -0.0833,-2.286675 -0.15496,-4.598435 -0.78215,-6.815061 -0.6981,-2.549268 -1.60212,-5.057881 -2.05572,-7.66328 -0.41979,-1.946275 -0.95464,-3.894098 -1.87251,-5.669738 -0.64959,-1.29594 -1.75256,-2.30169 -2.61575,-3.456027 -1.20944,-1.319758 -2.56303,-2.499688 -3.93922,-3.642413 -2.09592,-1.84541 -4.63941,-3.639087 -7.48685,-3.816913 -1.55956,0.02347 -3.13447,0.06179 -4.6559,0.441846 -1.93952,0.559416 -3.66363,1.431065 -5.08905,2.897547 -1.57894,1.393198 -3.13958,2.808647 -4.30806,4.581991 -1.03967,1.319204 -1.98164,2.66492 -2.57879,4.248158 z" />
    <path
       style="fill:#803300;stroke-width:0.264583"
       id="path20"
       d="m 118.22832,52.320234 c 1.9188,-0.538858 3.83167,-1.116951 5.71697,-1.764241 1.5827,-0.402228 3.0788,-1.040178 4.61445,-1.58151 1.30961,-0.429369 2.69416,-0.501632 4.06076,-0.551913 1.73477,-0.103129 3.45183,0.0186 5.15885,0.330936 0.33106,0.140739 0.6656,0.273584 0.9932,0.422219 1.01201,0.459171 0.93119,0.450604 1.88605,0.990534 0.28173,0.159305 1.12768,0.635812 0.84717,0.474379 -2.88754,-1.661758 -3.31473,-1.993715 -1.89616,-0.9941 1.14432,0.907097 1.92667,2.095005 2.65072,3.340359 0.75012,1.375743 1.70584,2.617983 2.34934,4.050141 0.64569,1.412886 1.53933,2.69444 2.33247,4.02627 0.90959,1.552718 1.69701,3.170516 2.51955,4.770102 0.85979,1.357646 1.202,2.922852 1.66589,4.438025 0.38608,1.809309 1.08099,3.525285 1.6998,5.263841 0.8651,2.674654 1.33131,5.436147 1.61387,8.225186 0.11611,1.307844 0.15832,2.619878 0.19605,3.931677 0,0 3.4288,1.733471 3.4288,1.733471 v 0 c -0.0453,-1.322298 -0.0806,-2.646011 -0.20435,-3.964051 -0.26429,-2.810262 -0.73622,-5.586553 -1.54567,-8.295966 -0.60898,-1.723509 -1.2865,-3.429079 -1.64975,-5.223388 -0.48179,-1.527866 -0.79669,-3.13132 -1.65518,-4.507352 -0.82218,-1.606018 -1.62883,-3.218143 -2.51165,-4.791363 -0.77364,-1.328613 -1.6445,-2.603817 -2.34031,-3.975727 -0.60445,-1.471388 -1.55822,-2.714284 -2.33497,-4.094189 -0.73084,-1.273791 -1.45735,-2.520519 -2.59025,-3.489701 -1.88572,-1.443825 -0.51353,-0.436491 -4.74624,-2.879873 -1.21367,-0.700603 -2.45265,-1.380294 -3.8033,-1.780325 -1.73556,-0.277501 -3.48583,-0.393809 -5.24329,-0.289682 -1.39184,0.07161 -2.79952,0.178723 -4.12193,0.653971 -1.51956,0.564927 -3.02452,1.151141 -4.5869,1.591889 -1.89304,0.646531 -3.80309,1.259496 -5.75165,1.716207 z" />
    <path
       style="fill:#803300;stroke-width:0.264583"
       id="path21"
       d="m 120.89399,54.965951 c 0.74998,-1.434105 2.16772,-2.130419 3.52087,-2.893928 1.37274,-0.77684 2.76632,-1.51952 4.17052,-2.239131 1.15849,-0.715717 2.30225,-1.383631 3.62295,-1.74266 1.16875,-0.240096 2.32372,-0.318251 3.47549,0.0069 0,0 -3.1159,-2.373432 -3.1159,-2.373432 v 0 c -1.20041,-0.217535 -2.40989,-0.12896 -3.59755,0.152334 -1.31745,0.414004 -2.47241,1.112933 -3.65578,1.81233 -1.39474,0.736565 -2.79078,1.471996 -4.15239,2.267794 -1.41757,0.808106 -2.87241,1.585476 -3.71021,3.049958 z" />
    <path
       style="fill:#803300;stroke-width:0.264583"
       id="path22"
       d="m 127.40117,56.594925 c 1.56508,-0.03846 3.11134,-0.091 4.64682,0.246864 2.33163,0.981599 -1.15432,-0.859383 -1.81445,-1.125368 -0.30071,-0.121164 0.50262,0.413147 0.72106,0.652713 0.69266,0.759664 1.09648,1.684468 1.51979,2.604805 0.66492,1.451644 0.85666,3.038663 1.25141,4.568997 0.67619,2.14935 1.08991,4.364185 1.54262,6.567995 0.47974,2.362909 1.04793,4.708213 1.4906,7.078647 0.27888,1.469988 0.34165,2.963934 0.37644,4.455541 0.0208,1.63087 0.008,3.261852 0.01,4.892796 -0.15799,1.835767 0.30245,3.601673 0.6767,5.37986 0.21084,1.514491 0.74415,2.935957 1.2882,4.353367 0.34206,0.874893 0.75726,1.699956 1.28542,2.474952 0,0 3.59818,1.558596 3.59818,1.558596 v 0 c -0.5644,-0.739263 -0.99627,-1.527576 -1.35017,-2.390162 -0.51711,-1.409745 -1.10921,-2.798914 -1.31461,-4.301599 -0.37865,-1.756058 -0.88569,-3.490687 -0.71785,-5.308094 0.01,-1.631175 0.015,-3.262445 0.005,-4.893623 -0.0179,-1.515641 -0.0703,-3.034035 -0.36795,-4.525647 -0.46301,-2.375424 -1.067,-4.720773 -1.51912,-7.098475 -0.45033,-2.193033 -0.85711,-4.396732 -1.46095,-6.553985 -0.42872,-1.550527 -0.63898,-3.157911 -1.27495,-4.648507 -1.45489,-3.349665 -3.0078,-4.966245 -7.04911,-6.090071 -1.57188,-0.267737 -3.1541,-0.210658 -4.74411,-0.225012 z" />
    <path
       style="fill:#803300;stroke-width:0.264583"
       id="path23"
       d="m 120.90048,54.641048 c 0.33664,-2.097029 1.12538,-4.040457 2.12038,-5.900573 0.95535,-1.878253 2.76306,-2.860514 4.52757,-3.856099 1.9469,-1.149429 4.03049,-2.030761 6.05367,-3.033069 1.47762,-0.705292 3.08804,-0.900028 4.70076,-1.002874 1.2694,-0.159655 2.43091,0.0806 3.59996,0.544065 0.16457,0.05676 0.3322,0.105302 0.49371,0.170273 0.33743,0.135744 0.67656,0.269571 1.00193,0.432117 0.15545,0.07766 0.59691,0.355878 0.44499,0.271537 -2.97166,-1.649762 -3.81301,-2.345526 -2.45042,-1.279385 1.49491,1.559441 2.64603,3.425542 3.95373,5.143958 1.31992,1.630947 2.46156,3.382883 3.56114,5.165833 1.00171,1.72397 1.99219,3.463722 2.63827,5.354508 0.5295,1.874062 0.67574,3.818916 0.75337,5.75533 -0.0615,2.410426 0.16851,4.780389 0.55188,7.155823 0.34746,1.695958 0.4388,3.424529 0.64743,5.137904 0.41273,2.067372 0.76805,4.142738 0.98012,6.240524 0.17308,2.15815 0.17857,4.325011 0.17763,6.488676 -0.0804,1.202369 0.0383,2.379781 0.22825,3.5634 0,0 3.52165,1.725837 3.52165,1.725837 v 0 c -0.18028,-1.174694 -0.3912,-2.332466 -0.29396,-3.530272 -0.0201,-2.174176 -0.0275,-4.350723 -0.16506,-6.52132 -0.18486,-2.100466 -0.57688,-4.171265 -0.96182,-6.242965 -0.20882,-1.725184 -0.2827,-3.467762 -0.67095,-5.169493 -0.41542,-2.357157 -0.67617,-4.693922 -0.53824,-7.09286 -0.0684,-1.972183 -0.25442,-3.944813 -0.734,-5.86441 -0.5878,-1.934154 -1.59211,-3.680545 -2.58816,-5.432462 -1.09676,-1.808279 -2.24223,-3.580966 -3.58397,-5.220671 -1.32065,-1.698887 -2.468,-3.533709 -3.83606,-5.189728 -1.79989,-1.564063 -3.99724,-2.668899 -6.22861,-3.48665 -1.19552,-0.422619 -2.41782,-0.538043 -3.68154,-0.393303 -1.64344,0.138782 -3.2758,0.389379 -4.7657,1.144087 -2.00883,1.032299 -4.09406,1.910088 -6.0395,3.063561 -1.83844,1.035007 -3.6757,2.068983 -4.6526,4.036062 -1.00504,1.883019 -1.78741,3.856069 -2.22083,5.954252 z" />
  </g>
</svg>
