<?xml version="1.0" standalone="no"?>
 <!DOCTYPE svg PUBLIC "-//W3C//DTD SVG 1.1//EN" 
 "http://www.w3.org/Graphics/SVG/1.1/DTD/svg11.dtd"> 
<svg
  xmlns:svg="http://www.w3.org/2000/svg"
  xmlns="http://www.w3.org/2000/svg"
  xmlns:xlink="http://www.w3.org/1999/xlink"
  version="1.1"
  width="136.3726mm" height="78.4352mm" viewBox="0.0000 0.0000 136.3726 78.4352">
<title>SVG Image created as Xiao nueva-F_Cu.svg date 2024/06/18 10:22:48 </title>
  <desc>Image generated by PCBNEW </desc>
<g style="fill:#000000; fill-opacity:1.0000;stroke:#000000; stroke-opacity:1.0000;
stroke-linecap:round; stroke-linejoin:round;"
 transform="translate(0 0) scale(1 1)">
<path style="fill:#000000; fill-opacity:1.0000; stroke:none;fill-rule:evenodd;"
d="M 119.2369,64.3000
119.2369,66.0000
116.7369,66.0000
116.7369,64.3000
Z" /> 
<path style="fill:#000000; fill-opacity:1.0000; stroke:none;fill-rule:evenodd;"
d="M 119.2369,61.7600
119.2369,63.4600
116.7369,63.4600
116.7369,61.7600
Z" /> 
<path style="fill:#000000; fill-opacity:1.0000; stroke:none;fill-rule:evenodd;"
d="M 119.2369,59.2200
119.2369,60.9200
116.7369,60.9200
116.7369,59.2200
Z" /> 
<path style="fill:#000000; fill-opacity:1.0000; stroke:none;fill-rule:evenodd;"
d="M 119.2369,56.6800
119.2369,58.3800
116.7369,58.3800
116.7369,56.6800
Z" /> 
<path style="fill:#000000; fill-opacity:1.0000; stroke:none;fill-rule:evenodd;"
d="M 40.1869,26.7900
40.1869,28.3900
38.5869,28.3900
38.5869,26.7900
Z" /> 
</g>
<g style="fill:#000000; fill-opacity:1.0000; stroke:none;">
<circle cx="39.3869" cy="25.0500" r="0.8000" /> 
<circle cx="39.3869" cy="22.5100" r="0.8000" /> 
<circle cx="39.3869" cy="19.9700" r="0.8000" /> 
<circle cx="39.3869" cy="17.4300" r="0.8000" /> 
<circle cx="39.3869" cy="14.8900" r="0.8000" /> 
<circle cx="39.3869" cy="12.3500" r="0.8000" /> 
<circle cx="39.3869" cy="9.8100" r="0.8000" /> 
<circle cx="26.6869" cy="9.8100" r="0.8000" /> 
<circle cx="26.6869" cy="12.3500" r="0.8000" /> 
<circle cx="26.6869" cy="14.8900" r="0.8000" /> 
<circle cx="26.6869" cy="17.4300" r="0.8000" /> 
<circle cx="26.6869" cy="19.9700" r="0.8000" /> 
<circle cx="26.6869" cy="22.5100" r="0.8000" /> 
<circle cx="26.6869" cy="25.0500" r="0.8000" /> 
<circle cx="26.6869" cy="27.5900" r="0.8000" /> 
<path style="fill:#000000; fill-opacity:1.0000; stroke:none;fill-rule:evenodd;"
d="M 44.1369,10.1500
44.1369,8.4500
46.6369,8.4500
46.6369,10.1500
Z" /> 
<path style="fill:#000000; fill-opacity:1.0000; stroke:none;fill-rule:evenodd;"
d="M 113.2869,35.2000
113.2869,33.5000
114.6869,33.5000
114.6869,35.2000
Z" /> 
<path style="fill:#000000; fill-opacity:1.0000; stroke:none;fill-rule:evenodd;"
d="M 116.6869,35.2000
116.6869,33.5000
118.0869,33.5000
118.0869,35.2000
Z" /> 
<path style="fill:#000000; fill-opacity:1.0000; stroke:none;fill-rule:evenodd;"
d="M 18.1369,50.9500
18.1369,49.2500
20.6369,49.2500
20.6369,50.9500
Z" /> 
<path style="fill:#000000; fill-opacity:1.0000; stroke:none;fill-rule:evenodd;"
d="M 18.1369,53.4900
18.1369,51.7900
20.6369,51.7900
20.6369,53.4900
Z" /> 
<path style="fill:#000000; fill-opacity:1.0000; stroke:none;fill-rule:evenodd;"
d="M 69.8269,25.4400
69.8269,27.0400
68.2269,27.0400
68.2269,25.4400
Z" /> 
<circle cx="69.0269" cy="23.7000" r="0.8000" /> 
<circle cx="69.0269" cy="21.1600" r="0.8000" /> 
<circle cx="69.0269" cy="18.6200" r="0.8000" /> 
<circle cx="69.0269" cy="16.0800" r="0.8000" /> 
<circle cx="69.0269" cy="13.5400" r="0.8000" /> 
<circle cx="69.0269" cy="11.0000" r="0.8000" /> 
<circle cx="69.0269" cy="8.4600" r="0.8000" /> 
<circle cx="56.3269" cy="8.4600" r="0.8000" /> 
<circle cx="56.3269" cy="11.0000" r="0.8000" /> 
<circle cx="56.3269" cy="13.5400" r="0.8000" /> 
<circle cx="56.3269" cy="16.0800" r="0.8000" /> 
<circle cx="56.3269" cy="18.6200" r="0.8000" /> 
<circle cx="56.3269" cy="21.1600" r="0.8000" /> 
<circle cx="56.3269" cy="23.7000" r="0.8000" /> 
<circle cx="56.3269" cy="26.2400" r="0.8000" /> 
<path style="fill:#000000; fill-opacity:1.0000; stroke:none;fill-rule:evenodd;"
d="M 17.1369,25.9500
17.1369,24.2500
19.6369,24.2500
19.6369,25.9500
Z" /> 
<path style="fill:#000000; fill-opacity:1.0000; stroke:none;fill-rule:evenodd;"
d="M 17.1369,28.4900
17.1369,26.7900
19.6369,26.7900
19.6369,28.4900
Z" /> 
<path style="fill:#000000; fill-opacity:1.0000; stroke:none;fill-rule:evenodd;"
d="M 70.1869,51.5500
70.1869,53.1500
68.5869,53.1500
68.5869,51.5500
Z" /> 
<circle cx="69.3869" cy="49.8100" r="0.8000" /> 
<circle cx="69.3869" cy="47.2700" r="0.8000" /> 
<circle cx="69.3869" cy="44.7300" r="0.8000" /> 
<circle cx="69.3869" cy="42.1900" r="0.8000" /> 
<circle cx="69.3869" cy="39.6500" r="0.8000" /> 
<circle cx="69.3869" cy="37.1100" r="0.8000" /> 
<circle cx="69.3869" cy="34.5700" r="0.8000" /> 
<circle cx="56.6869" cy="34.5700" r="0.8000" /> 
<circle cx="56.6869" cy="37.1100" r="0.8000" /> 
<circle cx="56.6869" cy="39.6500" r="0.8000" /> 
<circle cx="56.6869" cy="42.1900" r="0.8000" /> 
<circle cx="56.6869" cy="44.7300" r="0.8000" /> 
<circle cx="56.6869" cy="47.2700" r="0.8000" /> 
<circle cx="56.6869" cy="49.8100" r="0.8000" /> 
<circle cx="56.6869" cy="52.3500" r="0.8000" /> 
<path style="fill:#000000; fill-opacity:1.0000; stroke:none;fill-rule:evenodd;"
d="M 40.8269,51.4400
40.8269,53.0400
39.2269,53.0400
39.2269,51.4400
Z" /> 
<circle cx="40.0269" cy="49.7000" r="0.8000" /> 
<circle cx="40.0269" cy="47.1600" r="0.8000" /> 
<circle cx="40.0269" cy="44.6200" r="0.8000" /> 
<circle cx="40.0269" cy="42.0800" r="0.8000" /> 
<circle cx="40.0269" cy="39.5400" r="0.8000" /> 
<circle cx="40.0269" cy="37.0000" r="0.8000" /> 
<circle cx="40.0269" cy="34.4600" r="0.8000" /> 
<circle cx="27.3269" cy="34.4600" r="0.8000" /> 
<circle cx="27.3269" cy="37.0000" r="0.8000" /> 
<circle cx="27.3269" cy="39.5400" r="0.8000" /> 
<circle cx="27.3269" cy="42.0800" r="0.8000" /> 
<circle cx="27.3269" cy="44.6200" r="0.8000" /> 
<circle cx="27.3269" cy="47.1600" r="0.8000" /> 
<circle cx="27.3269" cy="49.7000" r="0.8000" /> 
<circle cx="27.3269" cy="52.2400" r="0.8000" /> 
<path style="fill:#000000; fill-opacity:1.0000; stroke:none;fill-rule:evenodd;"
d="M 118.0869,37.5000
118.0869,39.2000
116.6869,39.2000
116.6869,37.5000
Z" /> 
<path style="fill:#000000; fill-opacity:1.0000; stroke:none;fill-rule:evenodd;"
d="M 114.6869,37.5000
114.6869,39.2000
113.2869,39.2000
113.2869,37.5000
Z" /> 
<path style="fill:#000000; fill-opacity:1.0000; stroke:none;fill-rule:evenodd;"
d="M 45.1369,15.4000
45.1369,13.7000
47.6369,13.7000
47.6369,15.4000
Z" /> 
<path style="fill:#000000; fill-opacity:1.0000; stroke:none;fill-rule:evenodd;"
d="M 45.1369,17.9400
45.1369,16.2400
47.6369,16.2400
47.6369,17.9400
Z" /> 
<path style="fill:#000000; fill-opacity:1.0000; stroke:none;fill-rule:evenodd;"
d="M 45.1369,20.4800
45.1369,18.7800
47.6369,18.7800
47.6369,20.4800
Z" /> 
<path style="fill:#000000; fill-opacity:1.0000; stroke:none;fill-rule:evenodd;"
d="M 45.1369,23.0200
45.1369,21.3200
47.6369,21.3200
47.6369,23.0200
Z" /> 
<path style="fill:#000000; fill-opacity:1.0000; stroke:none;fill-rule:evenodd;"
d="M 45.1369,40.4000
45.1369,38.7000
47.6369,38.7000
47.6369,40.4000
Z" /> 
<path style="fill:#000000; fill-opacity:1.0000; stroke:none;fill-rule:evenodd;"
d="M 45.1369,42.9400
45.1369,41.2400
47.6369,41.2400
47.6369,42.9400
Z" /> 
<path style="fill:#000000; fill-opacity:1.0000; stroke:none;fill-rule:evenodd;"
d="M 45.1369,45.4800
45.1369,43.7800
47.6369,43.7800
47.6369,45.4800
Z" /> 
<path style="fill:#000000; fill-opacity:1.0000; stroke:none;fill-rule:evenodd;"
d="M 45.1369,48.0200
45.1369,46.3200
47.6369,46.3200
47.6369,48.0200
Z" /> 
<path style="fill:#000000; fill-opacity:1.0000; stroke:none;fill-rule:evenodd;"
d="M 75.1369,40.4000
75.1369,38.7000
77.6369,38.7000
77.6369,40.4000
Z" /> 
<path style="fill:#000000; fill-opacity:1.0000; stroke:none;fill-rule:evenodd;"
d="M 75.1369,42.9400
75.1369,41.2400
77.6369,41.2400
77.6369,42.9400
Z" /> 
<path style="fill:#000000; fill-opacity:1.0000; stroke:none;fill-rule:evenodd;"
d="M 75.1369,45.4800
75.1369,43.7800
77.6369,43.7800
77.6369,45.4800
Z" /> 
<path style="fill:#000000; fill-opacity:1.0000; stroke:none;fill-rule:evenodd;"
d="M 75.1369,48.0200
75.1369,46.3200
77.6369,46.3200
77.6369,48.0200
Z" /> 
<path style="fill:#000000; fill-opacity:1.0000; stroke:none;fill-rule:evenodd;"
d="M 127.2369,36.7500
127.2369,38.4500
124.7369,38.4500
124.7369,36.7500
Z" /> 
<path style="fill:#000000; fill-opacity:1.0000; stroke:none;fill-rule:evenodd;"
d="M 127.2369,34.2100
127.2369,35.9100
124.7369,35.9100
124.7369,34.2100
Z" /> 
<path style="fill:#000000; fill-opacity:1.0000; stroke:none;fill-rule:evenodd;"
d="M 104.1369,58.4000
104.1369,56.7000
106.6369,56.7000
106.6369,58.4000
Z" /> 
<path style="fill:#000000; fill-opacity:1.0000; stroke:none;fill-rule:evenodd;"
d="M 104.1369,60.9400
104.1369,59.2400
106.6369,59.2400
106.6369,60.9400
Z" /> 
<path style="fill:#000000; fill-opacity:1.0000; stroke:none;fill-rule:evenodd;"
d="M 104.1369,63.4800
104.1369,61.7800
106.6369,61.7800
106.6369,63.4800
Z" /> 
<path style="fill:#000000; fill-opacity:1.0000; stroke:none;fill-rule:evenodd;"
d="M 104.1369,66.0200
104.1369,64.3200
106.6369,64.3200
106.6369,66.0200
Z" /> 
<path style="fill:#000000; fill-opacity:1.0000; stroke:none;fill-rule:evenodd;"
d="M 89.1369,17.9500
89.1369,16.2500
91.6369,16.2500
91.6369,17.9500
Z" /> 
<path style="fill:#000000; fill-opacity:1.0000; stroke:none;fill-rule:evenodd;"
d="M 89.1369,20.4900
89.1369,18.7900
91.6369,18.7900
91.6369,20.4900
Z" /> 
<path style="fill:#000000; fill-opacity:1.0000; stroke:none;fill-rule:evenodd;"
d="M 76.1369,14.4000
76.1369,12.7000
78.6369,12.7000
78.6369,14.4000
Z" /> 
<path style="fill:#000000; fill-opacity:1.0000; stroke:none;fill-rule:evenodd;"
d="M 76.1369,16.9400
76.1369,15.2400
78.6369,15.2400
78.6369,16.9400
Z" /> 
<path style="fill:#000000; fill-opacity:1.0000; stroke:none;fill-rule:evenodd;"
d="M 76.1369,19.4800
76.1369,17.7800
78.6369,17.7800
78.6369,19.4800
Z" /> 
<path style="fill:#000000; fill-opacity:1.0000; stroke:none;fill-rule:evenodd;"
d="M 76.1369,22.0200
76.1369,20.3200
78.6369,20.3200
78.6369,22.0200
Z" /> 
<path style="fill:#000000; fill-opacity:1.0000; stroke:none;fill-rule:evenodd;"
d="M 114.1369,27.9500
114.1369,26.2500
116.6369,26.2500
116.6369,27.9500
Z" /> 
<path style="fill:#000000; fill-opacity:1.0000; stroke:none;fill-rule:evenodd;"
d="M 114.1369,30.4900
114.1369,28.7900
116.6369,28.7900
116.6369,30.4900
Z" /> 
<path style="fill:#000000; fill-opacity:1.0000; stroke:none;fill-rule:evenodd;"
d="M 95.6369,58.8000
97.3369,58.8000
97.3369,61.3000
95.6369,61.3000
Z" /> 
<path style="fill:#000000; fill-opacity:1.0000; stroke:none;fill-rule:evenodd;"
d="M 93.0969,58.8000
94.7969,58.8000
94.7969,61.3000
93.0969,61.3000
Z" /> 
<path style="fill:#000000; fill-opacity:1.0000; stroke:none;fill-rule:evenodd;"
d="M 90.5569,58.8000
92.2569,58.8000
92.2569,61.3000
90.5569,61.3000
Z" /> 
<path style="fill:#000000; fill-opacity:1.0000; stroke:none;fill-rule:evenodd;"
d="M 88.0169,58.8000
89.7169,58.8000
89.7169,61.3000
88.0169,61.3000
Z" /> 
<circle cx="88.0719" cy="35.7300" r="0.8000" /> 
<path style="fill:#000000; fill-opacity:1.0000; stroke:none;fill-rule:evenodd;"
d="M 85.5719,36.5300
85.5719,34.9300
88.5719,34.9300
88.5719,36.5300
Z" /> 
</g>
<g style="fill:#000000; fill-opacity:1.0000; stroke:none;">
<circle cx="88.0719" cy="38.2700" r="0.8000" /> 
<path style="fill:#000000; fill-opacity:1.0000; stroke:none;fill-rule:evenodd;"
d="M 85.5719,39.0700
85.5719,37.4700
88.5719,37.4700
88.5719,39.0700
Z" /> 
</g>
<g style="fill:#000000; fill-opacity:1.0000; stroke:none;">
<circle cx="88.0719" cy="40.8100" r="0.8000" /> 
<path style="fill:#000000; fill-opacity:1.0000; stroke:none;fill-rule:evenodd;"
d="M 85.5719,41.6100
85.5719,40.0100
88.5719,40.0100
88.5719,41.6100
Z" /> 
</g>
<g style="fill:#000000; fill-opacity:1.0000; stroke:none;">
<circle cx="88.0719" cy="43.3500" r="0.8000" /> 
<path style="fill:#000000; fill-opacity:1.0000; stroke:none;fill-rule:evenodd;"
d="M 85.5719,44.1500
85.5719,42.5500
88.5719,42.5500
88.5719,44.1500
Z" /> 
</g>
<g style="fill:#000000; fill-opacity:1.0000; stroke:none;">
<circle cx="88.0719" cy="45.8900" r="0.8000" /> 
<path style="fill:#000000; fill-opacity:1.0000; stroke:none;fill-rule:evenodd;"
d="M 85.5719,46.6900
85.5719,45.0900
88.5719,45.0900
88.5719,46.6900
Z" /> 
</g>
<g style="fill:#000000; fill-opacity:1.0000; stroke:none;">
<circle cx="88.0719" cy="48.4300" r="0.8000" /> 
<path style="fill:#000000; fill-opacity:1.0000; stroke:none;fill-rule:evenodd;"
d="M 85.5719,49.2300
85.5719,47.6300
88.5719,47.6300
88.5719,49.2300
Z" /> 
</g>
<g style="fill:#000000; fill-opacity:1.0000; stroke:none;">
<circle cx="88.0719" cy="50.9700" r="0.8000" /> 
<path style="fill:#000000; fill-opacity:1.0000; stroke:none;fill-rule:evenodd;"
d="M 85.5719,51.7700
85.5719,50.1700
88.5719,50.1700
88.5719,51.7700
Z" /> 
</g>
<g style="fill:#000000; fill-opacity:1.0000; stroke:none;">
<circle cx="103.3069" cy="50.9700" r="0.8000" /> 
<path style="fill:#000000; fill-opacity:1.0000; stroke:none;fill-rule:evenodd;"
d="M 102.8069,51.7700
102.8069,50.1700
105.8069,50.1700
105.8069,51.7700
Z" /> 
</g>
<g style="fill:#000000; fill-opacity:1.0000; stroke:none;">
<circle cx="103.3069" cy="48.4300" r="0.8000" /> 
<path style="fill:#000000; fill-opacity:1.0000; stroke:none;fill-rule:evenodd;"
d="M 102.8069,49.2300
102.8069,47.6300
105.8069,47.6300
105.8069,49.2300
Z" /> 
</g>
<g style="fill:#000000; fill-opacity:1.0000; stroke:none;">
<circle cx="103.3069" cy="45.8900" r="0.8000" /> 
<path style="fill:#000000; fill-opacity:1.0000; stroke:none;fill-rule:evenodd;"
d="M 102.8069,46.6900
102.8069,45.0900
105.8069,45.0900
105.8069,46.6900
Z" /> 
</g>
<g style="fill:#000000; fill-opacity:1.0000; stroke:none;">
<circle cx="103.3069" cy="43.3500" r="0.8000" /> 
<path style="fill:#000000; fill-opacity:1.0000; stroke:none;fill-rule:evenodd;"
d="M 102.8069,44.1500
102.8069,42.5500
105.8069,42.5500
105.8069,44.1500
Z" /> 
</g>
<g style="fill:#000000; fill-opacity:1.0000; stroke:none;">
<circle cx="103.3069" cy="40.8100" r="0.8000" /> 
<path style="fill:#000000; fill-opacity:1.0000; stroke:none;fill-rule:evenodd;"
d="M 102.8069,41.6100
102.8069,40.0100
105.8069,40.0100
105.8069,41.6100
Z" /> 
</g>
<g style="fill:#000000; fill-opacity:1.0000; stroke:none;">
<circle cx="103.3069" cy="38.2700" r="0.8000" /> 
<path style="fill:#000000; fill-opacity:1.0000; stroke:none;fill-rule:evenodd;"
d="M 102.8069,39.0700
102.8069,37.4700
105.8069,37.4700
105.8069,39.0700
Z" /> 
</g>
<g style="fill:#000000; fill-opacity:1.0000; stroke:none;">
<circle cx="103.3069" cy="35.7300" r="0.8000" /> 
<path style="fill:#000000; fill-opacity:1.0000; stroke:none;fill-rule:evenodd;"
d="M 102.8069,36.5300
102.8069,34.9300
105.8069,34.9300
105.8069,36.5300
Z" /> 
<path style="fill:#000000; fill-opacity:1.0000; stroke:none;fill-rule:evenodd;"
d="M 89.8869,41.6500
89.8869,40.4500
92.2869,40.4500
92.2869,41.6500
Z" /> 
<path style="fill:#000000; fill-opacity:1.0000; stroke:none;fill-rule:evenodd;"
d="M 89.8869,43.7500
89.8869,42.5500
92.2869,42.5500
92.2869,43.7500
Z" /> 
</g>
<g style="fill:#000000; fill-opacity:1.0000; stroke:none;">
<circle cx="94.4169" cy="34.6700" r="0.6000" /> 
</g>
<g style="fill:#000000; fill-opacity:1.0000; stroke:none;">
<circle cx="94.4169" cy="37.2100" r="0.6000" /> 
</g>
<g style="fill:#000000; fill-opacity:1.0000; stroke:none;">
<circle cx="94.4169" cy="39.7500" r="0.6000" /> 
</g>
<g style="fill:#000000; fill-opacity:1.0000; stroke:none;">
<circle cx="96.9569" cy="39.7500" r="0.6000" /> 
</g>
<g style="fill:#000000; fill-opacity:1.0000; stroke:none;">
<circle cx="96.9569" cy="37.2100" r="0.6000" /> 
</g>
<g style="fill:#000000; fill-opacity:1.0000; stroke:none;">
<circle cx="96.9569" cy="34.6700" r="0.6000" /> 
<path style="fill:#000000; fill-opacity:1.0000; stroke:none;fill-rule:evenodd;"
d="M 96.6869,45.6000
96.6869,42.6000
99.6869,42.6000
99.6869,45.6000
Z" /> 
</g>
<g style="fill:none; 
stroke:#000000; stroke-width:1.0000; stroke-opacity:1; 
stroke-linecap:round; stroke-linejoin:round;">
<path d="M67.6869 48.1100
L69.3869 49.8100
" />
<path d="M62.4469 48.1100
L67.6869 48.1100
" />
<path d="M62.4469 37.9258
L62.4469 48.1100
" />
<path d="M57.3911 32.8700
L62.4469 37.9258
" />
<path d="M55.9827 32.8700
L57.3911 32.8700
" />
<path d="M52.6869 36.1658
L55.9827 32.8700
" />
<path d="M70.2827 68.3500
L52.6869 50.7542
" />
<path d="M121.2869 65.7500
L118.6869 68.3500
" />
<path d="M118.6869 68.3500
L70.2827 68.3500
" />
<path d="M121.2869 62.0100
L121.2869 65.7500
" />
<path d="M52.6869 50.7542
L52.6869 36.1658
" />
<path d="M119.3469 60.0700
L121.2869 62.0100
" />
<path d="M117.9869 60.0700
L119.3469 60.0700
" />
<path d="M41.4427 5.3500
L33.5425 13.2502
" />
<path d="M48.7070 5.3500
L41.4427 5.3500
" />
<path d="M33.5425 13.2502
L33.5425 30.5156
" />
<path d="M33.5425 30.5156
L40.0269 37.0000
" />
<path d="M50.2869 11.7500
L50.2869 6.9299
" />
<path d="M39.3869 12.3500
L49.6869 12.3500
" />
<path d="M49.6869 12.3500
L50.2869 11.7500
" />
<path d="M50.2869 6.9299
L48.7070 5.3500
" />
<path d="M48.6869 3.3500
L41.4628 3.3500
" />
<path d="M41.4628 3.3500
L31.6869 13.1259
" />
<path d="M31.6869 13.1259
L31.6869 41.3600
" />
<path d="M31.6869 41.3600
L40.0269 49.7000
" />
<path d="M51.6869 20.7700
L51.6869 6.3500
" />
<path d="M51.6869 6.3500
L48.6869 3.3500
" />
<path d="M47.4069 25.0500
L51.6869 20.7700
" />
<path d="M39.3869 25.0500
L47.4069 25.0500
" />
<path d="M49.6869 47.3500
L48.3869 48.6500
" />
<path d="M47.4369 37.0000
L49.6869 39.2500
" />
<path d="M49.6869 39.2500
L49.6869 47.3500
" />
<path d="M40.0269 37.0000
L47.4369 37.0000
" />
<path d="M119.9369 57.5300
L117.9869 57.5300
" />
<path d="M122.6869 60.2800
L119.9369 57.5300
" />
<path d="M121.6869 67.3500
L122.6869 66.3500
" />
<path d="M122.6869 66.3500
L122.6869 60.2800
" />
<path d="M118.6869 70.3500
L121.6869 67.3500
" />
<path d="M67.6869 70.3500
L118.6869 70.3500
" />
<path d="M50.9088 53.5719
L67.6869 70.3500
" />
<path d="M41.3588 53.5719
L50.9088 53.5719
" />
<path d="M40.0269 52.2400
L41.3588 53.5719
" />
<path d="M102.7469 40.8100
L103.3069 40.8100
" />
<path d="M100.7369 42.8200
L102.7469 40.8100
" />
<path d="M100.7369 55.8000
L100.7369 42.8200
" />
<path d="M106.6669 60.0900
L105.3869 60.0900
" />
<path d="M107.5369 56.2000
L107.5369 59.2200
" />
<path d="M107.5369 59.2200
L106.6669 60.0900
" />
<path d="M100.7369 55.8000
L107.1369 55.8000
" />
<path d="M107.1369 55.8000
L107.5369 56.2000
" />
<path d="M96.4869 60.0500
L100.7369 55.8000
" />
</g>
<g style="fill:none; 
stroke:#000000; stroke-width:0.7000; stroke-opacity:1; 
stroke-linecap:round; stroke-linejoin:round;">
<path d="M70.9369 28.1500
L70.9369 35.5600
" />
<path d="M70.9369 35.5600
L69.3869 37.1100
" />
<path d="M69.0269 26.2400
L70.9369 28.1500
" />
</g>
<g style="fill:none; 
stroke:#000000; stroke-width:1.0000; stroke-opacity:1; 
stroke-linecap:round; stroke-linejoin:round;">
<path d="M78.6869 35.9000
L69.0269 26.2400
" />
<path d="M78.6869 48.2579
L78.6869 35.9000
" />
<path d="M74.5948 52.3500
L78.6869 48.2579
" />
<path d="M69.3869 52.3500
L74.5948 52.3500
" />
</g>
<g style="fill:none; 
stroke:#000000; stroke-width:0.7000; stroke-opacity:1; 
stroke-linecap:round; stroke-linejoin:round;">
<path d="M79.5369 22.2000
L79.5369 21.3500
" />
</g>
<g style="fill:none; 
stroke:#000000; stroke-width:1.0000; stroke-opacity:1; 
stroke-linecap:round; stroke-linejoin:round;">
<path d="M80.6869 23.3500
L79.5369 22.2000
" />
<path d="M80.6869 48.0256
L80.6869 23.3500
" />
<path d="M74.5297 54.1828
L80.6869 48.0256
" />
<path d="M67.5197 54.1828
L74.5297 54.1828
" />
<path d="M67.0369 51.0286
L67.0369 53.7000
" />
<path d="M68.2555 49.8100
L67.0369 51.0286
" />
</g>
<g style="fill:none; 
stroke:#000000; stroke-width:0.7000; stroke-opacity:1; 
stroke-linecap:round; stroke-linejoin:round;">
<path d="M69.3869 49.8100
L68.2555 49.8100
" />
<path d="M67.0369 53.7000
L67.5197 54.1828
" />
</g>
<g style="fill:none; 
stroke:#000000; stroke-width:1.0000; stroke-opacity:1; 
stroke-linecap:round; stroke-linejoin:round;">
<path d="M79.5369 21.3500
L79.5369 22.9200
" />
<path d="M79.5369 11.8000
L79.5369 21.3500
" />
<path d="M128.6869 35.8100
L128.6869 46.8300
" />
<path d="M127.9369 35.0600
L128.6869 35.8100
" />
<path d="M128.6869 46.8300
L117.9869 57.5300
" />
<path d="M125.9869 35.0600
L127.9369 35.0600
" />
</g>
<g style="fill:none; 
stroke:#000000; stroke-width:0.7000; stroke-opacity:1; 
stroke-linecap:round; stroke-linejoin:round;">
<path d="M45.9469 31.0900
L63.3669 31.0900
" />
</g>
<g style="fill:none; 
stroke:#000000; stroke-width:1.0000; stroke-opacity:1; 
stroke-linecap:round; stroke-linejoin:round;">
<path d="M40.0369 37.0000
L45.9469 31.0900
" />
</g>
<g style="fill:none; 
stroke:#000000; stroke-width:0.7000; stroke-opacity:1; 
stroke-linecap:round; stroke-linejoin:round;">
<path d="M40.0269 37.0000
L40.0369 37.0000
" />
<path d="M63.3669 31.0900
L69.3869 37.1100
" />
</g>
<g style="fill:none; 
stroke:#000000; stroke-width:1.0000; stroke-opacity:1; 
stroke-linecap:round; stroke-linejoin:round;">
<path d="M44.6469 29.8400
L40.0269 34.4600
" />
<path d="M69.3869 34.5700
L64.6569 29.8400
" />
<path d="M64.6569 29.8400
L44.6469 29.8400
" />
<path d="M65.0869 30.2700
L69.3869 34.5700
" />
<path d="M65.0869 12.4000
L65.0869 30.2700
" />
<path d="M69.0269 8.4600
L65.0869 12.4000
" />
<path d="M79.5369 22.9200
L78.7569 23.7000
" />
<path d="M78.7569 23.7000
L69.0269 23.7000
" />
<path d="M74.4969 6.7600
L79.5369 11.8000
" />
<path d="M63.6869 7.3500
L64.2769 6.7600
" />
<path d="M63.6869 21.3500
L63.6869 7.3500
" />
<path d="M57.0969 27.9400
L63.6869 21.3500
" />
<path d="M55.6172 27.9400
L57.0969 27.9400
" />
<path d="M52.7272 25.0500
L55.6172 27.9400
" />
<path d="M64.2769 6.7600
L74.4969 6.7600
" />
<path d="M39.3869 25.0500
L52.7272 25.0500
" />
<path d="M35.7508 13.4461
L35.7508 30.1839
" />
<path d="M39.3869 9.8100
L35.7508 13.4461
" />
<path d="M35.7508 30.1839
L40.0269 34.4600
" />
<path d="M46.3869 47.1700
L40.0369 47.1700
" />
<path d="M40.0369 47.1700
L40.0269 47.1600
" />
<path d="M40.0369 44.6300
L40.0269 44.6200
" />
<path d="M46.3869 44.6300
L40.0369 44.6300
" />
<path d="M40.0369 42.0900
L40.0269 42.0800
" />
<path d="M46.3869 42.0900
L40.0369 42.0900
" />
<path d="M40.0369 39.5500
L40.0269 39.5400
" />
<path d="M46.3869 39.5500
L40.0369 39.5500
" />
<path d="M39.7269 22.1700
L39.3869 22.5100
" />
<path d="M46.3869 22.1700
L39.7269 22.1700
" />
<path d="M39.7269 19.6300
L39.3869 19.9700
" />
<path d="M46.3869 19.6300
L39.7269 19.6300
" />
<path d="M39.7269 17.0900
L39.3869 17.4300
" />
<path d="M46.3869 17.0900
L39.7269 17.0900
" />
<path d="M46.0469 14.8900
L46.3869 14.5500
" />
<path d="M39.3869 14.8900
L46.0469 14.8900
" />
<path d="M39.8969 9.3000
L39.3869 9.8100
" />
<path d="M45.3869 9.3000
L39.8969 9.3000
" />
<path d="M48.3869 48.6500
L44.7969 52.2400
" />
<path d="M44.7969 52.2400
L40.0269 52.2400
" />
<path d="M59.5026 4.8600
L80.9342 4.8600
" />
<path d="M88.3719 35.4300
L88.0719 35.7300
" />
<path d="M86.0869 10.0127
L86.0869 23.4627
" />
<path d="M58.0269 6.3357
L59.5026 4.8600
" />
<path d="M86.0869 23.4627
L88.3719 25.7477
" />
<path d="M58.0269 22.0000
L58.0269 6.3357
" />
<path d="M80.9342 4.8600
L86.0869 10.0127
" />
<path d="M88.3719 25.7477
L88.3719 35.4300
" />
<path d="M56.3269 23.7000
L58.0269 22.0000
" />
</g>
<g style="fill:none; 
stroke:#000000; stroke-width:1.4000; stroke-opacity:1; 
stroke-linecap:round; stroke-linejoin:round;">
<path d="M56.1799 26.2400
L56.3269 26.2400
" />
<path d="M54.4269 7.6730
L54.4269 24.4870
" />
<path d="M54.4269 24.4870
L56.1799 26.2400
" />
<path d="M87.6869 22.8000
L87.6869 9.3500
" />
<path d="M89.9719 25.0850
L87.6869 22.8000
" />
<path d="M81.5969 3.2600
L58.8399 3.2600
" />
<path d="M89.9719 37.3300
L89.9719 25.0850
" />
<path d="M58.8399 3.2600
L54.4269 7.6730
" />
<path d="M87.6869 9.3500
L81.5969 3.2600
" />
<path d="M89.0319 38.2700
L89.9719 37.3300
" />
<path d="M88.0719 38.2700
L89.0319 38.2700
" />
</g>
<g style="fill:none; 
stroke:#000000; stroke-width:1.0000; stroke-opacity:1; 
stroke-linecap:round; stroke-linejoin:round;">
<path d="M37.1508 14.5861
L39.3869 12.3500
" />
<path d="M37.1508 27.1539
L37.1508 14.5861
" />
<path d="M37.5869 27.5900
L37.1508 27.1539
" />
<path d="M39.3869 27.5900
L37.5869 27.5900
" />
<path d="M77.3769 21.1600
L77.3869 21.1700
" />
<path d="M69.0269 21.1600
L77.3769 21.1600
" />
<path d="M77.3769 18.6200
L77.3869 18.6300
" />
<path d="M69.0269 18.6200
L77.3769 18.6200
" />
<path d="M69.0269 16.0800
L77.3769 16.0800
" />
<path d="M77.3769 16.0800
L77.3869 16.0900
" />
<path d="M77.3769 13.5400
L77.3869 13.5500
" />
<path d="M69.0269 13.5400
L77.3769 13.5400
" />
<path d="M84.6719 44.1900
L85.5119 43.3500
" />
<path d="M84.6719 48.7782
L84.6719 44.1900
" />
<path d="M76.1002 57.3500
L84.6719 48.7782
" />
<path d="M61.6869 57.3500
L76.1002 57.3500
" />
<path d="M85.5119 43.3500
L88.0719 43.3500
" />
<path d="M56.6869 52.3500
L61.6869 57.3500
" />
<path d="M82.2869 49.1834
L82.2869 40.3500
" />
<path d="M75.5203 55.9500
L82.2869 49.1834
" />
<path d="M62.8269 55.9500
L75.5203 55.9500
" />
<path d="M56.6869 49.8100
L62.8269 55.9500
" />
<path d="M82.2869 40.3500
L87.6119 40.3500
" />
<path d="M87.6119 40.3500
L88.0719 40.8100
" />
</g>
<g style="fill:none; 
stroke:#000000; stroke-width:0.7000; stroke-opacity:1; 
stroke-linecap:round; stroke-linejoin:round;">
<path d="M56.3269 21.1600
L56.3269 18.6200
" />
</g>
<g style="fill:none; 
stroke:#000000; stroke-width:1.0000; stroke-opacity:1; 
stroke-linecap:round; stroke-linejoin:round;">
<path d="M26.6869 22.5100
L26.6869 19.9700
" />
<path d="M27.3269 47.1600
L27.3269 44.6200
" />
</g>
<g style="fill:none; 
stroke:#000000; stroke-width:0.7000; stroke-opacity:1; 
stroke-linecap:round; stroke-linejoin:round;">
<path d="M56.6869 47.2700
L56.6869 44.7300
" />
<path d="M117.3869 38.3500
L117.3869 34.3500
" />
</g>
<g style="fill:none; 
stroke:#000000; stroke-width:1.0000; stroke-opacity:1; 
stroke-linecap:round; stroke-linejoin:round;">
<path d="M89.6219 49.9800
L88.0719 48.4300
" />
<path d="M89.6219 59.2950
L89.6219 49.9800
" />
</g>
<g style="fill:none; 
stroke:#000000; stroke-width:0.7000; stroke-opacity:1; 
stroke-linecap:round; stroke-linejoin:round;">
<path d="M88.8669 60.0500
L89.6219 59.2950
" />
</g>
<g style="fill:none; 
stroke:#000000; stroke-width:1.0000; stroke-opacity:1; 
stroke-linecap:round; stroke-linejoin:round;">
<path d="M91.4069 49.2250
L91.4069 60.0500
" />
<path d="M88.0719 45.8900
L91.4069 49.2250
" />
<path d="M117.6969 45.8900
L103.3069 45.8900
" />
<path d="M125.9869 37.6000
L117.6969 45.8900
" />
<path d="M125.9869 33.5100
L112.1169 19.6400
" />
<path d="M125.9869 35.0600
L125.9869 33.5100
" />
<path d="M112.1169 19.6400
L90.3869 19.6400
" />
<path d="M120.8069 35.0600
L115.3869 29.6400
" />
<path d="M125.9869 35.0600
L120.8069 35.0600
" />
<path d="M113.9869 31.0400
L115.3869 29.6400
" />
<path d="M113.9869 34.3500
L113.9869 31.0400
" />
<path d="M106.6869 38.2700
L110.6069 34.3500
" />
<path d="M110.6069 34.3500
L113.9869 34.3500
" />
</g>
<g style="fill:none; 
stroke:#000000; stroke-width:0.7000; stroke-opacity:1; 
stroke-linecap:round; stroke-linejoin:round;">
<path d="M103.3069 38.2700
L106.6869 38.2700
" />
</g>
<g style="fill:none; 
stroke:#000000; stroke-width:1.0000; stroke-opacity:1; 
stroke-linecap:round; stroke-linejoin:round;">
<path d="M112.1069 40.2300
L113.9869 38.3500
" />
<path d="M108.6869 40.2300
L112.1069 40.2300
" />
<path d="M105.5669 43.3500
L108.6869 40.2300
" />
</g>
<g style="fill:none; 
stroke:#000000; stroke-width:0.7000; stroke-opacity:1; 
stroke-linecap:round; stroke-linejoin:round;">
<path d="M103.3069 43.3500
L105.5669 43.3500
" />
<path d="M105.4069 60.0700
L105.3869 60.0900
" />
</g>
<g style="fill:none; 
stroke:#000000; stroke-width:1.0000; stroke-opacity:1; 
stroke-linecap:round; stroke-linejoin:round;">
<path d="M117.9869 60.0700
L105.4069 60.0700
" />
</g>
<g style="fill:none; 
stroke:#000000; stroke-width:0.7000; stroke-opacity:1; 
stroke-linecap:round; stroke-linejoin:round;">
<path d="M67.4769 12.5500
L68.6819 11.3450
" />
<path d="M68.6819 11.3450
L69.0269 11.0000
" />
<path d="M67.4769 24.6900
L67.4769 12.5500
" />
<path d="M69.0269 26.2400
L67.4769 24.6900
" />
</g>
<g style="fill:none; 
stroke:#000000; stroke-width:1.0000; stroke-opacity:1; 
stroke-linecap:round; stroke-linejoin:round;">
<path d="M103.4369 57.5500
L105.3869 57.5500
" />
</g>
<g style="fill:none; 
stroke:#000000; stroke-width:0.7000; stroke-opacity:1; 
stroke-linecap:round; stroke-linejoin:round;">
<path d="M93.9469 62.0000
L93.9969 62.0500
" />
<path d="M93.9469 60.0500
L93.9469 62.0000
" />
<path d="M93.9969 62.0500
L98.9369 62.0500
" />
<path d="M98.9369 62.0500
L103.4369 57.5500
" />
</g>
<g style="fill:none; 
stroke:#000000; stroke-width:1.0000; stroke-opacity:1; 
stroke-linecap:round; stroke-linejoin:round;">
<path d="M93.9469 43.5900
L93.9469 60.0500
" />
<path d="M96.4369 41.1000
L93.9469 43.5900
" />
<path d="M100.4769 41.1000
L96.4369 41.1000
" />
<path d="M103.3069 38.2700
L100.4769 41.1000
" />
<path d="M111.9369 27.1000
L103.3069 35.7300
" />
<path d="M115.3869 27.1000
L111.9369 27.1000
" />
</g>
<g style="fill:none; 
stroke:#000000; stroke-width:0.7000; stroke-opacity:1; 
stroke-linecap:round; stroke-linejoin:round;">
<path d="M117.9669 62.6300
L117.9869 62.6100
" />
</g>
<g style="fill:none; 
stroke:#000000; stroke-width:1.0000; stroke-opacity:1; 
stroke-linecap:round; stroke-linejoin:round;">
<path d="M105.3869 62.6300
L117.9669 62.6300
" />
</g>
<g style="fill:none; 
stroke:#000000; stroke-width:0.7000; stroke-opacity:1; 
stroke-linecap:round; stroke-linejoin:round;">
<path d="M117.9669 65.1700
L117.9869 65.1500
" />
</g>
<g style="fill:none; 
stroke:#000000; stroke-width:1.0000; stroke-opacity:1; 
stroke-linecap:round; stroke-linejoin:round;">
<path d="M105.3869 65.1700
L117.9669 65.1700
" />
<path d="M92.9269 65.1700
L105.3869 65.1700
" />
</g>
<g style="fill:none; 
stroke:#000000; stroke-width:0.7000; stroke-opacity:1; 
stroke-linecap:round; stroke-linejoin:round;">
<path d="M88.8669 61.1100
L92.9269 65.1700
" />
<path d="M88.8669 60.0500
L88.8669 61.1100
" />
<path d="M18.4369 27.5900
L18.3869 27.6400
" />
</g>
<g style="fill:none; 
stroke:#000000; stroke-width:1.0000; stroke-opacity:1; 
stroke-linecap:round; stroke-linejoin:round;">
<path d="M26.6869 27.5900
L18.4369 27.5900
" />
<path d="M26.6369 25.1000
L18.3869 25.1000
" />
</g>
<g style="fill:none; 
stroke:#000000; stroke-width:0.7000; stroke-opacity:1; 
stroke-linecap:round; stroke-linejoin:round;">
<path d="M26.6869 25.0500
L26.6369 25.1000
" />
<path d="M69.4869 39.5500
L69.3869 39.6500
" />
</g>
<g style="fill:none; 
stroke:#000000; stroke-width:1.0000; stroke-opacity:1; 
stroke-linecap:round; stroke-linejoin:round;">
<path d="M76.3869 39.5500
L69.4869 39.5500
" />
<path d="M76.3869 44.6300
L69.4869 44.6300
" />
</g>
<g style="fill:none; 
stroke:#000000; stroke-width:0.7000; stroke-opacity:1; 
stroke-linecap:round; stroke-linejoin:round;">
<path d="M69.4869 44.6300
L69.3869 44.7300
" />
</g>
<g style="fill:none; 
stroke:#000000; stroke-width:1.0000; stroke-opacity:1; 
stroke-linecap:round; stroke-linejoin:round;">
<path d="M76.3869 47.1700
L69.4869 47.1700
" />
</g>
<g style="fill:none; 
stroke:#000000; stroke-width:0.7000; stroke-opacity:1; 
stroke-linecap:round; stroke-linejoin:round;">
<path d="M69.4869 47.1700
L69.3869 47.2700
" />
</g>
<g style="fill:none; 
stroke:#000000; stroke-width:1.0000; stroke-opacity:1; 
stroke-linecap:round; stroke-linejoin:round;">
<path d="M76.3869 42.0900
L69.4869 42.0900
" />
</g>
<g style="fill:none; 
stroke:#000000; stroke-width:0.7000; stroke-opacity:1; 
stroke-linecap:round; stroke-linejoin:round;">
<path d="M69.4869 42.0900
L69.3869 42.1900
" />
<path d="M105.3869 62.6300
L104.8669 63.1500
" />
<path d="M91.4069 61.1100
L91.4069 60.0500
" />
<path d="M104.8669 63.1500
L93.4469 63.1500
" />
<path d="M93.4469 63.1500
L91.4069 61.1100
" />
<path d="M19.7869 52.2400
L19.3869 52.6400
" />
</g>
<g style="fill:none; 
stroke:#000000; stroke-width:1.0000; stroke-opacity:1; 
stroke-linecap:round; stroke-linejoin:round;">
<path d="M27.3269 52.2400
L19.7869 52.2400
" />
</g>
<g style="fill:none; 
stroke:#000000; stroke-width:0.7000; stroke-opacity:1; 
stroke-linecap:round; stroke-linejoin:round;">
<path d="M26.9269 50.1000
L27.3269 49.7000
" />
</g>
<g style="fill:none; 
stroke:#000000; stroke-width:1.0000; stroke-opacity:1; 
stroke-linecap:round; stroke-linejoin:round;">
<path d="M19.3869 50.1000
L26.9269 50.1000
" />
</g>
<g style="fill:#FFFFFF; fill-opacity:1.0000; stroke:none;">
<circle cx="39.3869" cy="27.5900" r="0.4000" /> 
</g>
<g style="fill:#FFFFFF; fill-opacity:1.0000; stroke:none;">
<circle cx="39.3869" cy="25.0500" r="0.4000" /> 
</g>
<g style="fill:#FFFFFF; fill-opacity:1.0000; stroke:none;">
<circle cx="39.3869" cy="22.5100" r="0.4000" /> 
</g>
<g style="fill:#FFFFFF; fill-opacity:1.0000; stroke:none;">
<circle cx="39.3869" cy="19.9700" r="0.4000" /> 
</g>
<g style="fill:#FFFFFF; fill-opacity:1.0000; stroke:none;">
<circle cx="39.3869" cy="17.4300" r="0.4000" /> 
</g>
<g style="fill:#FFFFFF; fill-opacity:1.0000; stroke:none;">
<circle cx="39.3869" cy="14.8900" r="0.4000" /> 
</g>
<g style="fill:#FFFFFF; fill-opacity:1.0000; stroke:none;">
<circle cx="39.3869" cy="12.3500" r="0.4000" /> 
</g>
<g style="fill:#FFFFFF; fill-opacity:1.0000; stroke:none;">
<circle cx="39.3869" cy="9.8100" r="0.4000" /> 
</g>
<g style="fill:#FFFFFF; fill-opacity:1.0000; stroke:none;">
<circle cx="26.6869" cy="9.8100" r="0.4000" /> 
</g>
<g style="fill:#FFFFFF; fill-opacity:1.0000; stroke:none;">
<circle cx="26.6869" cy="12.3500" r="0.4000" /> 
</g>
<g style="fill:#FFFFFF; fill-opacity:1.0000; stroke:none;">
<circle cx="26.6869" cy="14.8900" r="0.4000" /> 
</g>
<g style="fill:#FFFFFF; fill-opacity:1.0000; stroke:none;">
<circle cx="26.6869" cy="17.4300" r="0.4000" /> 
</g>
<g style="fill:#FFFFFF; fill-opacity:1.0000; stroke:none;">
<circle cx="26.6869" cy="19.9700" r="0.4000" /> 
</g>
<g style="fill:#FFFFFF; fill-opacity:1.0000; stroke:none;">
<circle cx="26.6869" cy="22.5100" r="0.4000" /> 
</g>
<g style="fill:#FFFFFF; fill-opacity:1.0000; stroke:none;">
<circle cx="26.6869" cy="25.0500" r="0.4000" /> 
</g>
<g style="fill:#FFFFFF; fill-opacity:1.0000; stroke:none;">
<circle cx="26.6869" cy="27.5900" r="0.4000" /> 
</g>
<g style="fill:#FFFFFF; fill-opacity:1.0000; stroke:none;">
<circle cx="69.0269" cy="26.2400" r="0.4000" /> 
</g>
<g style="fill:#FFFFFF; fill-opacity:1.0000; stroke:none;">
<circle cx="69.0269" cy="23.7000" r="0.4000" /> 
</g>
<g style="fill:#FFFFFF; fill-opacity:1.0000; stroke:none;">
<circle cx="69.0269" cy="21.1600" r="0.4000" /> 
</g>
<g style="fill:#FFFFFF; fill-opacity:1.0000; stroke:none;">
<circle cx="69.0269" cy="18.6200" r="0.4000" /> 
</g>
<g style="fill:#FFFFFF; fill-opacity:1.0000; stroke:none;">
<circle cx="69.0269" cy="16.0800" r="0.4000" /> 
</g>
<g style="fill:#FFFFFF; fill-opacity:1.0000; stroke:none;">
<circle cx="69.0269" cy="13.5400" r="0.4000" /> 
</g>
<g style="fill:#FFFFFF; fill-opacity:1.0000; stroke:none;">
<circle cx="69.0269" cy="11.0000" r="0.4000" /> 
</g>
<g style="fill:#FFFFFF; fill-opacity:1.0000; stroke:none;">
<circle cx="69.0269" cy="8.4600" r="0.4000" /> 
</g>
<g style="fill:#FFFFFF; fill-opacity:1.0000; stroke:none;">
<circle cx="56.3269" cy="8.4600" r="0.4000" /> 
</g>
<g style="fill:#FFFFFF; fill-opacity:1.0000; stroke:none;">
<circle cx="56.3269" cy="11.0000" r="0.4000" /> 
</g>
<g style="fill:#FFFFFF; fill-opacity:1.0000; stroke:none;">
<circle cx="56.3269" cy="13.5400" r="0.4000" /> 
</g>
<g style="fill:#FFFFFF; fill-opacity:1.0000; stroke:none;">
<circle cx="56.3269" cy="16.0800" r="0.4000" /> 
</g>
<g style="fill:#FFFFFF; fill-opacity:1.0000; stroke:none;">
<circle cx="56.3269" cy="18.6200" r="0.4000" /> 
</g>
<g style="fill:#FFFFFF; fill-opacity:1.0000; stroke:none;">
<circle cx="56.3269" cy="21.1600" r="0.4000" /> 
</g>
<g style="fill:#FFFFFF; fill-opacity:1.0000; stroke:none;">
<circle cx="56.3269" cy="23.7000" r="0.4000" /> 
</g>
<g style="fill:#FFFFFF; fill-opacity:1.0000; stroke:none;">
<circle cx="56.3269" cy="26.2400" r="0.4000" /> 
</g>
<g style="fill:#FFFFFF; fill-opacity:1.0000; stroke:none;">
<circle cx="69.3869" cy="52.3500" r="0.4000" /> 
</g>
<g style="fill:#FFFFFF; fill-opacity:1.0000; stroke:none;">
<circle cx="69.3869" cy="49.8100" r="0.4000" /> 
</g>
<g style="fill:#FFFFFF; fill-opacity:1.0000; stroke:none;">
<circle cx="69.3869" cy="47.2700" r="0.4000" /> 
</g>
<g style="fill:#FFFFFF; fill-opacity:1.0000; stroke:none;">
<circle cx="69.3869" cy="44.7300" r="0.4000" /> 
</g>
<g style="fill:#FFFFFF; fill-opacity:1.0000; stroke:none;">
<circle cx="69.3869" cy="42.1900" r="0.4000" /> 
</g>
<g style="fill:#FFFFFF; fill-opacity:1.0000; stroke:none;">
<circle cx="69.3869" cy="39.6500" r="0.4000" /> 
</g>
<g style="fill:#FFFFFF; fill-opacity:1.0000; stroke:none;">
<circle cx="69.3869" cy="37.1100" r="0.4000" /> 
</g>
<g style="fill:#FFFFFF; fill-opacity:1.0000; stroke:none;">
<circle cx="69.3869" cy="34.5700" r="0.4000" /> 
</g>
<g style="fill:#FFFFFF; fill-opacity:1.0000; stroke:none;">
<circle cx="56.6869" cy="34.5700" r="0.4000" /> 
</g>
<g style="fill:#FFFFFF; fill-opacity:1.0000; stroke:none;">
<circle cx="56.6869" cy="37.1100" r="0.4000" /> 
</g>
<g style="fill:#FFFFFF; fill-opacity:1.0000; stroke:none;">
<circle cx="56.6869" cy="39.6500" r="0.4000" /> 
</g>
<g style="fill:#FFFFFF; fill-opacity:1.0000; stroke:none;">
<circle cx="56.6869" cy="42.1900" r="0.4000" /> 
</g>
<g style="fill:#FFFFFF; fill-opacity:1.0000; stroke:none;">
<circle cx="56.6869" cy="44.7300" r="0.4000" /> 
</g>
<g style="fill:#FFFFFF; fill-opacity:1.0000; stroke:none;">
<circle cx="56.6869" cy="47.2700" r="0.4000" /> 
</g>
<g style="fill:#FFFFFF; fill-opacity:1.0000; stroke:none;">
<circle cx="56.6869" cy="49.8100" r="0.4000" /> 
</g>
<g style="fill:#FFFFFF; fill-opacity:1.0000; stroke:none;">
<circle cx="56.6869" cy="52.3500" r="0.4000" /> 
</g>
<g style="fill:#FFFFFF; fill-opacity:1.0000; stroke:none;">
<circle cx="40.0269" cy="52.2400" r="0.4000" /> 
</g>
<g style="fill:#FFFFFF; fill-opacity:1.0000; stroke:none;">
<circle cx="40.0269" cy="49.7000" r="0.4000" /> 
</g>
<g style="fill:#FFFFFF; fill-opacity:1.0000; stroke:none;">
<circle cx="40.0269" cy="47.1600" r="0.4000" /> 
</g>
<g style="fill:#FFFFFF; fill-opacity:1.0000; stroke:none;">
<circle cx="40.0269" cy="44.6200" r="0.4000" /> 
</g>
<g style="fill:#FFFFFF; fill-opacity:1.0000; stroke:none;">
<circle cx="40.0269" cy="42.0800" r="0.4000" /> 
</g>
<g style="fill:#FFFFFF; fill-opacity:1.0000; stroke:none;">
<circle cx="40.0269" cy="39.5400" r="0.4000" /> 
</g>
<g style="fill:#FFFFFF; fill-opacity:1.0000; stroke:none;">
<circle cx="40.0269" cy="37.0000" r="0.4000" /> 
</g>
<g style="fill:#FFFFFF; fill-opacity:1.0000; stroke:none;">
<circle cx="40.0269" cy="34.4600" r="0.4000" /> 
</g>
<g style="fill:#FFFFFF; fill-opacity:1.0000; stroke:none;">
<circle cx="27.3269" cy="34.4600" r="0.4000" /> 
</g>
<g style="fill:#FFFFFF; fill-opacity:1.0000; stroke:none;">
<circle cx="27.3269" cy="37.0000" r="0.4000" /> 
</g>
<g style="fill:#FFFFFF; fill-opacity:1.0000; stroke:none;">
<circle cx="27.3269" cy="39.5400" r="0.4000" /> 
</g>
<g style="fill:#FFFFFF; fill-opacity:1.0000; stroke:none;">
<circle cx="27.3269" cy="42.0800" r="0.4000" /> 
</g>
<g style="fill:#FFFFFF; fill-opacity:1.0000; stroke:none;">
<circle cx="27.3269" cy="44.6200" r="0.4000" /> 
</g>
<g style="fill:#FFFFFF; fill-opacity:1.0000; stroke:none;">
<circle cx="27.3269" cy="47.1600" r="0.4000" /> 
</g>
<g style="fill:#FFFFFF; fill-opacity:1.0000; stroke:none;">
<circle cx="27.3269" cy="49.7000" r="0.4000" /> 
</g>
<g style="fill:#FFFFFF; fill-opacity:1.0000; stroke:none;">
<circle cx="27.3269" cy="52.2400" r="0.4000" /> 
</g>
<g style="fill:#FFFFFF; fill-opacity:1.0000; stroke:none;">
<circle cx="88.0719" cy="35.7300" r="0.4000" /> 
</g>
<g style="fill:#FFFFFF; fill-opacity:1.0000; stroke:none;">
<circle cx="88.0719" cy="38.2700" r="0.4000" /> 
</g>
<g style="fill:#FFFFFF; fill-opacity:1.0000; stroke:none;">
<circle cx="88.0719" cy="40.8100" r="0.4000" /> 
</g>
<g style="fill:#FFFFFF; fill-opacity:1.0000; stroke:none;">
<circle cx="88.0719" cy="43.3500" r="0.4000" /> 
</g>
<g style="fill:#FFFFFF; fill-opacity:1.0000; stroke:none;">
<circle cx="88.0719" cy="45.8900" r="0.4000" /> 
</g>
<g style="fill:#FFFFFF; fill-opacity:1.0000; stroke:none;">
<circle cx="88.0719" cy="48.4300" r="0.4000" /> 
</g>
<g style="fill:#FFFFFF; fill-opacity:1.0000; stroke:none;">
<circle cx="88.0719" cy="50.9700" r="0.4000" /> 
</g>
<g style="fill:#FFFFFF; fill-opacity:1.0000; stroke:none;">
<circle cx="103.3069" cy="50.9700" r="0.4000" /> 
</g>
<g style="fill:#FFFFFF; fill-opacity:1.0000; stroke:none;">
<circle cx="103.3069" cy="48.4300" r="0.4000" /> 
</g>
<g style="fill:#FFFFFF; fill-opacity:1.0000; stroke:none;">
<circle cx="103.3069" cy="45.8900" r="0.4000" /> 
</g>
<g style="fill:#FFFFFF; fill-opacity:1.0000; stroke:none;">
<circle cx="103.3069" cy="43.3500" r="0.4000" /> 
</g>
<g style="fill:#FFFFFF; fill-opacity:1.0000; stroke:none;">
<circle cx="103.3069" cy="40.8100" r="0.4000" /> 
</g>
<g style="fill:#FFFFFF; fill-opacity:1.0000; stroke:none;">
<circle cx="103.3069" cy="38.2700" r="0.4000" /> 
</g>
<g style="fill:#FFFFFF; fill-opacity:1.0000; stroke:none;">
<circle cx="103.3069" cy="35.7300" r="0.4000" /> 
</g> 
</svg>
