<?xml version="1.0" encoding="UTF-8" standalone="no"?>
<!-- Created with Inkscape (http://www.inkscape.org/) -->

<svg
   width="210mm"
   height="297mm"
   viewBox="0 0 210 297"
   version="1.1"
   id="svg1"
   xml:space="preserve"
   inkscape:version="1.3.2 (091e20e, 2023-11-25, custom)"
   sodipodi:docname="INKSCAPE.svg"
   xmlns:inkscape="http://www.inkscape.org/namespaces/inkscape"
   xmlns:sodipodi="http://sodipodi.sourceforge.net/DTD/sodipodi-0.dtd"
   xmlns="http://www.w3.org/2000/svg"
   xmlns:svg="http://www.w3.org/2000/svg"><sodipodi:namedview
     id="namedview1"
     pagecolor="#ffffff"
     bordercolor="#000000"
     borderopacity="0.25"
     inkscape:showpageshadow="2"
     inkscape:pageopacity="0.0"
     inkscape:pagecheckerboard="0"
     inkscape:deskcolor="#d1d1d1"
     inkscape:document-units="mm"
     inkscape:zoom="0.87885424"
     inkscape:cx="351.59414"
     inkscape:cy="130.28327"
     inkscape:window-width="1366"
     inkscape:window-height="705"
     inkscape:window-x="-8"
     inkscape:window-y="-8"
     inkscape:window-maximized="1"
     inkscape:current-layer="layer1" /><defs
     id="defs1" /><g
     inkscape:label="Capa 1"
     inkscape:groupmode="layer"
     id="layer1"><text
       xml:space="preserve"
       style="font-style:normal;font-variant:normal;font-weight:normal;font-stretch:normal;font-size:3.175px;font-family:sans-serif;-inkscape-font-specification:sans-serif;white-space:pre;inline-size:7.09396;fill:#ff0000;stroke-width:0.264583"
       x="40.694626"
       y="61.68642"
       id="text1" /><text
       xml:space="preserve"
       style="font-style:normal;font-variant:normal;font-weight:normal;font-stretch:normal;font-size:6.35px;font-family:sans-serif;-inkscape-font-specification:sans-serif;fill:#ff0000;stroke-width:0.264583"
       x="40.878761"
       y="63.527805"
       id="text2"><tspan
         sodipodi:role="line"
         id="tspan2"
         style="stroke-width:0.264583;-inkscape-font-specification:sans-serif;font-family:sans-serif;font-weight:normal;font-style:normal;font-stretch:normal;font-variant:normal"
         x="40.878761"
         y="63.527805" /></text><path
       style="fill:#ececec;stroke-width:0.264583"
       d="m 112.29346,22.579114 c -1.46837,7.286066 -2.93251,14.571429 0.30105,21.073841 -21.102625,2.079124 -40.607476,-1.700245 -59.307802,-8.429538 -9.93481,-3.934761 -19.869619,-3.677709 -29.80443,-1.204219 -3.528545,2.391783 -1.063271,5.252756 0.903165,8.429536 l 14.149579,2.709495 c 3.473302,3.318453 8.165467,2.126034 9.934809,4.816875 12.21768,7.350886 30.272855,8.864277 45.459282,13.246415 -18.638261,-3.428364 -37.186263,-7.578799 -56.59831,-4.816877 -8.784913,5.116273 -7.812767,14.13537 -9.031646,22.278061 -1.807974,13.86892 2.990837,23.887617 4.816878,37.029737 l 129.453585,1.80633 c 2.42665,-5.74445 3.10802,-9.23909 3.31161,-20.170675 L 155.34431,61.114134 C 153.23814,47.066392 143.50958,46.084732 139.3884,43.3519 c 1.07673,-16.00556 1.35996,-15.526882 -1.80633,-22.27806 -8.68008,-12.6650953 -20.30261,-5.344279 -25.28861,1.505274 z"
       id="path74"
       sodipodi:nodetypes="ccccccccccccccccc"
       inkscape:export-filename="path74.png"
       inkscape:export-xdpi="96"
       inkscape:export-ydpi="96" /><g
       id="g74"
       transform="matrix(1.3077357,0,0,1.3077357,7.6640496,122.79766)"
       style="fill:#000000"><path
         id="path1"
         style="fill:#000000;stroke-width:0.264583"
         d="m 88.093648,6.8953396 c -0.96857,-0.03683 -1.97088,0.04514 -3.04633,0.38241 -0.57535,0.59261 -0.93346,0.9821 -1.64848,1.43505 -2.2685,-0.07205 -2.88646,1.7368804 -3.97856,2.9719104 -0.30268,2.23733 -0.87163,0.98633 -0.4284,7.32617 0.89402,0.24315 0.85084,0.95484 0.63717,1.75183 -2.12184,3.519285 -0.63588,3.380875 0.58756,3.822505 -0.19328,0.83199 0.10536,1.68473 0.74259,2.65513 -0.71897,1.57402 -1.64164,1.18077 -2.76365,1.00821 -4.80968,-1.35573 -5.71388,-0.33414 -7.48585,0.15916 -2.06848,0.0991 -3.01921,0.4374 -6.84816,0.15917 -1.29947,-0.71118 -3.07929,-1.24462 -6.05235,-0.42168 l -21.50101,-4.038 c -1.60511,-0.93185 -2.95652,-2.708915 -4.93717,-2.388995 -1.08836,-0.57069 -2.14578,-1.15699 -3.50418,-1.59267 2.0626,-1.09957 0.71928,-1.10966 -0.63717,-1.11466 -0.9671,-0.88393 -1.49996,-0.46595 -1.91099,0.31833 l -14.334011,0.63717 c -1.017247,0.54556 -1.577881,2.14117 -0.0021,2.975535 L 21.177802,22.03705 c 0.31728,1.009955 0.23369,2.420805 1.592666,2.389005 0.94142,-0.48153 0.91996,0.77021 1.22163,1.44022 0.59022,0.4448 1.6316,0.98323 2.9192,0.31161 0.70226,-0.62118 0.24583,-1.00632 1.9637,2.76365 0.27245,0.73625 7.79808,0.26533 9.34413,1.37718 4.16456,2.44328 10.01296,4.21333 17.67903,5.25601 0.87327,0.13558 1.80527,-0.55473 2.54971,1.38441 1.22703,0.0449 6.00355,1.81384 9.87279,2.91559 1.73872,0.77125 3.12968,-0.67823 4.99349,3.34501 0.95014,0.54068 1.84349,13.1055 0.58084,18.15651 -0.49154,1.64647 -1.78151,3.4741 0.63717,4.45916 0.35154,0.46799 1.05839,0.64038 0.63717,1.75235 -2.3628,0.43298 -1.4841,6.05191 -2.22622,9.078 -0.10495,1.60748 -0.21639,2.8134 -1.43712,3.02617 -1.9093,-0.25254 -3.33145,1.25568 -3.34605,1.64848 -0.32998,1.47901 -0.0284,1.79927 0.48473,1.79937 0.62219,-0.43274 0.36501,-2.28116 1.10949,-1.05885 0.11499,1.20364 0.38823,1.1423 0.63717,1.27435 l 35.994702,-0.63718 c -0.82371,-3.1505 -1.40937,-6.14254 -2.86701,-9.71568 -0.24059,-1.28303 -1.07711,-2.58493 0.62632,-3.00395 0.86312,0.94693 1.76358,0.0932 2.39985,-1.45521 -0.0273,-0.5051 -0.22833,-1.69459 -0.70021,-2.64428 -0.43529,-1.20519 -1.64509,-1.37623 -3.44062,-0.54106 0.17203,-1.69374 0.86604,-3.17896 -1.11518,-5.73401 -0.029,-1.65067 0.27228,-2.64079 -0.15916,-5.09633 0.14115,-1.85576 0.79475,-2.27709 2.07067,-0.9555 -0.86372,1.718 0.2282,1.7244 1.11466,1.91099 1.31323,4.39809 2.58296,8.89436 4.77801,11.30836 l 1.27434,2.70733 c -0.11391,2.02477 -1.26118,2.67212 0.47749,7.167 -0.58205,1.58506 -0.18654,2.30156 1.27434,2.07068 0.60719,-0.64364 1.0261,-0.6603 0.9555,0.95549 -0.5769,0.32342 -1.10156,1.21211 -2.54817,1.59267 -1.06058,1.15294 -0.95079,1.77383 1.27383,1.4335 1.87304,-1.27911 2.24328,-2.05722 3.18585,-3.02617 0.66297,-0.3328 0.64565,-1.68528 0.63665,-3.02617 -0.16224,-1.02951 -0.30021,-1.88939 -0.79633,-5.25601 0.0228,-0.97078 -0.45137,-2.18987 -1.11466,-3.50366 -0.58635,-4.25011 -0.82273,-8.06255 -3.02618,-14.33401 0.084,-4.2971 -1.06955,-4.46937 -2.22983,-4.61884 -0.38155,-2.33097 -0.10221,-4.78253 -1.33171,-6.68951 0.91424,-2.46371 -0.51606,-4.28585 -0.73845,-6.37067 -1.04761,-5.20866 -5.14296,-5.60025 -8.600512,-6.79235 -0.74229,-1.52955 -2.40213,-3.13989 -3.50418,-3.08199 v -2.389 c 0.31125,0.29092 0.68498,0.3636 1.27434,-0.31884 0.42562,0.0555 0.78614,-0.0623 0.79634,-1.114655 1.7791,-1.40065 1.38132,-3.13593 -0.47801,-5.09633 -0.0902,-2.19418 0.73044,-3.73893 -2.28358,-6.26577 0.49937,-1.1679604 -1.09591,-2.4411104 -2.65359,-3.6090804 -0.93982,-0.13744 -1.87467,-0.29286 -2.84323,-0.3297 z M 24.364208,23.849345 c 0.16272,0.57227 0.40598,1.04451 0.99683,0.97461 -0.12247,0.48167 -0.47684,1.15273 0.62581,0.40928 0.0465,-0.23445 0.27056,-0.38359 0.54467,-0.61805 0.13934,-0.75889 0.48698,-0.65025 0.96738,0.4098 -0.33081,0.93041 -1.35664,0.93396 -2.35128,0.97926 -0.96185,-0.53859 -0.96725,-0.94054 -1.17564,-1.37149 -0.24115,0.17249 -0.0488,-0.16 0.39223,-0.78341 z" /><g
         id="g73"
         transform="translate(-78.197512,-77.767855)"
         style="fill:#000000"><path
           d="m 104.26167,122.18459 -0.76481,7.80985 -0.65009,-7.79539 h -2.858228 l -1.039213,7.01611 -0.519865,-7.01611 -2.85874,0.12971 1.299662,11.04377 3.638024,-0.25941 0.77928,-5.58726 0.9095,5.84667 h 3.76825 l 1.16065,-11.05255 z"
           style="fill:#000000;stroke-width:0.264583"
           id="path73" /><path
           d="m 108.33584,122.19905 -1.52084,11.24118 2.81998,-0.19741 0.38964,-1.94871 h 0.90951 v 2.07842 l 2.94659,-0.0181 -1.25729,-11.15539 z m 1.89187,3.98426 0.68575,3.42873 h -1.02836 z"
           style="fill:#000000;stroke-width:0.264583"
           id="path72" /><path
           d="m 114.54063,122.11224 -0.13023,11.00088 h 4.93768 l 0.0527,-2.09342 -1.81901,0.0382 -0.0527,-8.88524 z"
           style="fill:#000000;stroke-width:0.264583"
           id="path71" /><path
           d="m 126.97501,122.31429 -2.94969,0.0145 -1.16944,4.02766 v -4.02766 h -2.98845 l 0.13023,11.174 2.85822,-0.25994 0.13023,-4.41781 1.07797,4.62452 3.07939,-0.077 -2.20865,-5.97638 z"
           style="fill:#000000;stroke-width:0.264583"
           id="path70" /><path
           d="m 127.40341,122.19905 0.0465,11.08202 3.04012,0.077 0.0315,-11.15901 z"
           style="fill:#000000;stroke-width:0.264583"
           id="path69" /><path
           d="m 131.59953,122.13136 -0.16846,11.11146 h 2.4691 l -0.13023,-4.54752 1.55908,4.54752 2.67942,-0.0346 0.17932,-10.87943 -2.59881,-0.12971 v 4.67723 l -1.65726,-4.61367 z"
           style="fill:#000000;stroke-width:0.264583"
           id="path68" /><path
           d="m 142.19889,122.03524 c -1.37598,-0.0234 -2.49837,0.46083 -2.97192,2.24224 l -0.0806,7.37423 c 0.49741,1.65389 2.28401,3.10521 4.62815,0.94154 l 0.0811,0.87488 1.81901,0.0661 0.0806,-5.97637 -3.27991,-0.16175 -0.13022,1.55908 0.76739,0.062 -0.0253,2.27686 c -0.32424,0.25908 -0.86886,0.73529 -1.06815,-0.13022 l -0.11265,-6.46472 c 0.0798,-0.89025 0.75935,-1.51389 1.07125,0.29456 l -0.0636,1.29656 2.93936,0.0662 c 0.22883,-2.15798 -0.71014,-3.38126 -2.20866,-4.15737 -0.50047,-0.0915 -0.98724,-0.156 -1.4459,-0.16382 z"
           style="fill:#000000;stroke-width:0.264583"
           id="path67" /><path
           d="m 96.081804,135.24684 -0.112655,24.24193 9.189101,0.1695 c 1.70093,-0.59601 3.2113,-1.41234 2.98793,-4.22869 v -17.13797 c 0.0435,-1.44074 -1.86409,-2.78094 -3.43906,-3.04477 z m 5.416206,4.64157 c 0.52602,-0.004 1.01576,0.13578 1.18649,1.55288 v 12.51448 c -0.30807,1.91067 -1.10286,1.874 -1.88567,1.88568 l 0.17156,-15.94322 c 0.17284,0.009 0.35228,-0.009 0.52762,-0.01 z"
           style="fill:#000000;stroke-width:0.264583"
           id="path66" /><path
           d="m 110.34502,135.24684 c 0.2255,-0.0564 0.16898,24.29826 0.16898,24.29826 h 8.68216 l 0.16898,-4.73563 h -3.77703 l -0.11317,-5.58106 3.32641,0.0563 -0.0563,-4.39714 h -3.27009 l -0.0563,-4.79196 3.38274,0.0563 0.28164,-4.79196 z"
           style="fill:#000000;stroke-width:0.264583"
           id="path65" /><path
           d="m 130.0203,135.13418 -7.72356,0.0563 -2.70629,24.29826 5.46891,0.11265 0.28164,-4.34081 1.97301,0.16898 0.28215,4.05918 h 5.35575 z m -3.84886,6.82129 1.02836,9.08575 -2.2288,0.17157 z"
           style="fill:#000000;stroke-width:0.264583"
           id="path64" /><path
           d="m 133.79733,135.13418 0.11266,24.35459 8.68215,0.22582 c 1.31133,-0.88332 3.12239,-0.33085 3.32642,-4.39766 l -0.11266,-15.95458 c -0.18837,-2.54565 -1.69623,-3.76074 -3.38274,-4.05919 z m 5.06016,4.42144 c 0.64111,0.24951 1.81867,0.15372 1.55391,1.98851 L 140.4,154.46995 c -0.0123,1.24761 -0.91412,1.76106 -1.65726,1.30328 z"
           style="fill:#000000;stroke-width:0.264583"
           id="path63" /><path
           d="m 107.57723,115.85422 v 1.27589 l 0.54002,0.0491 -0.0491,4.41731 1.07952,0.14727 0.14727,-4.66276 h 0.34365 v -1.2268 z"
           style="fill:#000000;stroke-width:0.264583"
           id="path62" /><path
           d="m 109.88406,115.80513 -0.0491,5.98775 h 0.83458 l 0.0486,-2.25775 0.34364,-0.0491 0.0491,2.30684 0.78549,-0.0982 0.0982,-5.79138 h -0.83458 l -0.0491,2.25775 -0.49041,0.0491 v -2.30684 z"
           style="fill:#000000;stroke-width:0.264583"
           id="path61" /><path
           d="m 113.85953,116.0015 -1.66863,0.0982 0.24546,5.6441 1.42317,-0.0491 0.0982,-1.17771 -0.78548,-0.0491 v -1.03095 l 0.6382,-0.14728 v -1.27589 l -0.73639,-0.0491 v -0.83457 l 0.78549,0.0491 z"
           style="fill:#000000;stroke-width:0.264583"
           id="path60" /></g></g></g></svg>
