<?xml version="1.0" standalone="no"?>
 <!DOCTYPE svg PUBLIC "-//W3C//DTD SVG 1.1//EN" 
 "http://www.w3.org/Graphics/SVG/1.1/DTD/svg11.dtd"> 
<svg
  xmlns:svg="http://www.w3.org/2000/svg"
  xmlns="http://www.w3.org/2000/svg"
  xmlns:xlink="http://www.w3.org/1999/xlink"
  version="1.1"
  width="50.3428mm" height="67.0814mm" viewBox="0.0000 0.0000 50.3428 67.0814">
<title>SVG Image created as Attiny84-F_Cu.svg date 2024/03/15 15:44:18 </title>
  <desc>Image generated by PCBNEW </desc>
<g style="fill:#000000; fill-opacity:1.0000;stroke:#000000; stroke-opacity:1.0000;
stroke-linecap:round; stroke-linejoin:round;"
 transform="translate(0 0) scale(1 1)">
</g>
<g style="fill:none; 
stroke:#000000; stroke-width:0.3000; stroke-opacity:1; 
stroke-linecap:round; stroke-linejoin:round;">
<g transform="rotate(-90.000000 46.0500 26.0500)">
<text x="46.0500" y="26.0500"
textLength="19.4571" font-size="2.0000" lengthAdjust="spacingAndGlyphs"
text-anchor="start" opacity="0">Brenda Pastrana</text>
</g>
<g class="stroked-text"><desc>Brenda Pastrana</desc>
<path d="M45.0651 24.9955
L45.1365 24.7812
" />
<path d="M45.1365 24.7812
L45.2080 24.7098
" />
<path d="M45.2080 24.7098
L45.3508 24.6383
" />
<path d="M45.3508 24.6383
L45.5651 24.6383
" />
<path d="M45.5651 24.6383
L45.7080 24.7098
" />
<path d="M45.7080 24.7098
L45.7794 24.7812
" />
<path d="M45.7794 24.7812
L45.8508 24.9241
" />
<path d="M45.8508 24.9241
L45.8508 25.4955
" />
<path d="M45.8508 25.4955
L44.3508 25.4955
" />
<path d="M44.3508 25.4955
L44.3508 24.9955
" />
<path d="M44.3508 24.9955
L44.4223 24.8526
" />
<path d="M44.4223 24.8526
L44.4937 24.7812
" />
<path d="M44.4937 24.7812
L44.6365 24.7098
" />
<path d="M44.6365 24.7098
L44.7794 24.7098
" />
<path d="M44.7794 24.7098
L44.9223 24.7812
" />
<path d="M44.9223 24.7812
L44.9937 24.8526
" />
<path d="M44.9937 24.8526
L45.0651 24.9955
" />
<path d="M45.0651 24.9955
L45.0651 25.4955
" />
<path d="M45.8508 23.9955
L44.8508 23.9955
" />
<path d="M45.1365 23.9955
L44.9937 23.9241
" />
<path d="M44.9937 23.9241
L44.9223 23.8526
" />
<path d="M44.9223 23.8526
L44.8508 23.7098
" />
<path d="M44.8508 23.7098
L44.8508 23.5669
" />
<path d="M45.7794 22.4955
L45.8508 22.6383
" />
<path d="M45.8508 22.6383
L45.8508 22.9241
" />
<path d="M45.8508 22.9241
L45.7794 23.0669
" />
<path d="M45.7794 23.0669
L45.6365 23.1383
" />
<path d="M45.6365 23.1383
L45.0651 23.1383
" />
<path d="M45.0651 23.1383
L44.9223 23.0669
" />
<path d="M44.9223 23.0669
L44.8508 22.9241
" />
<path d="M44.8508 22.9241
L44.8508 22.6383
" />
<path d="M44.8508 22.6383
L44.9223 22.4955
" />
<path d="M44.9223 22.4955
L45.0651 22.4241
" />
<path d="M45.0651 22.4241
L45.2080 22.4241
" />
<path d="M45.2080 22.4241
L45.3508 23.1383
" />
<path d="M44.8508 21.7812
L45.8508 21.7812
" />
<path d="M44.9937 21.7812
L44.9223 21.7098
" />
<path d="M44.9223 21.7098
L44.8508 21.5669
" />
<path d="M44.8508 21.5669
L44.8508 21.3526
" />
<path d="M44.8508 21.3526
L44.9223 21.2098
" />
<path d="M44.9223 21.2098
L45.0651 21.1383
" />
<path d="M45.0651 21.1383
L45.8508 21.1383
" />
<path d="M45.8508 19.7812
L44.3508 19.7812
" />
<path d="M45.7794 19.7812
L45.8508 19.9241
" />
<path d="M45.8508 19.9241
L45.8508 20.2098
" />
<path d="M45.8508 20.2098
L45.7794 20.3526
" />
<path d="M45.7794 20.3526
L45.7080 20.4241
" />
<path d="M45.7080 20.4241
L45.5651 20.4955
" />
<path d="M45.5651 20.4955
L45.1365 20.4955
" />
<path d="M45.1365 20.4955
L44.9937 20.4241
" />
<path d="M44.9937 20.4241
L44.9223 20.3526
" />
<path d="M44.9223 20.3526
L44.8508 20.2098
" />
<path d="M44.8508 20.2098
L44.8508 19.9241
" />
<path d="M44.8508 19.9241
L44.9223 19.7812
" />
<path d="M45.8508 18.4241
L45.0651 18.4241
" />
<path d="M45.0651 18.4241
L44.9223 18.4955
" />
<path d="M44.9223 18.4955
L44.8508 18.6383
" />
<path d="M44.8508 18.6383
L44.8508 18.9241
" />
<path d="M44.8508 18.9241
L44.9223 19.0669
" />
<path d="M45.7794 18.4241
L45.8508 18.5669
" />
<path d="M45.8508 18.5669
L45.8508 18.9241
" />
<path d="M45.8508 18.9241
L45.7794 19.0669
" />
<path d="M45.7794 19.0669
L45.6365 19.1383
" />
<path d="M45.6365 19.1383
L45.4937 19.1383
" />
<path d="M45.4937 19.1383
L45.3508 19.0669
" />
<path d="M45.3508 19.0669
L45.2794 18.9241
" />
<path d="M45.2794 18.9241
L45.2794 18.5669
" />
<path d="M45.2794 18.5669
L45.2080 18.4241
" />
<path d="M45.8508 16.5669
L44.3508 16.5669
" />
<path d="M44.3508 16.5669
L44.3508 15.9955
" />
<path d="M44.3508 15.9955
L44.4223 15.8526
" />
<path d="M44.4223 15.8526
L44.4937 15.7812
" />
<path d="M44.4937 15.7812
L44.6365 15.7098
" />
<path d="M44.6365 15.7098
L44.8508 15.7098
" />
<path d="M44.8508 15.7098
L44.9937 15.7812
" />
<path d="M44.9937 15.7812
L45.0651 15.8526
" />
<path d="M45.0651 15.8526
L45.1365 15.9955
" />
<path d="M45.1365 15.9955
L45.1365 16.5669
" />
<path d="M45.8508 14.4241
L45.0651 14.4241
" />
<path d="M45.0651 14.4241
L44.9223 14.4955
" />
<path d="M44.9223 14.4955
L44.8508 14.6383
" />
<path d="M44.8508 14.6383
L44.8508 14.9241
" />
<path d="M44.8508 14.9241
L44.9223 15.0669
" />
<path d="M45.7794 14.4241
L45.8508 14.5669
" />
<path d="M45.8508 14.5669
L45.8508 14.9241
" />
<path d="M45.8508 14.9241
L45.7794 15.0669
" />
<path d="M45.7794 15.0669
L45.6365 15.1383
" />
<path d="M45.6365 15.1383
L45.4937 15.1383
" />
<path d="M45.4937 15.1383
L45.3508 15.0669
" />
<path d="M45.3508 15.0669
L45.2794 14.9241
" />
<path d="M45.2794 14.9241
L45.2794 14.5669
" />
<path d="M45.2794 14.5669
L45.2080 14.4241
" />
<path d="M45.7794 13.7812
L45.8508 13.6383
" />
<path d="M45.8508 13.6383
L45.8508 13.3526
" />
<path d="M45.8508 13.3526
L45.7794 13.2098
" />
<path d="M45.7794 13.2098
L45.6365 13.1383
" />
<path d="M45.6365 13.1383
L45.5651 13.1383
" />
<path d="M45.5651 13.1383
L45.4223 13.2098
" />
<path d="M45.4223 13.2098
L45.3508 13.3526
" />
<path d="M45.3508 13.3526
L45.3508 13.5669
" />
<path d="M45.3508 13.5669
L45.2794 13.7098
" />
<path d="M45.2794 13.7098
L45.1365 13.7812
" />
<path d="M45.1365 13.7812
L45.0651 13.7812
" />
<path d="M45.0651 13.7812
L44.9223 13.7098
" />
<path d="M44.9223 13.7098
L44.8508 13.5669
" />
<path d="M44.8508 13.5669
L44.8508 13.3526
" />
<path d="M44.8508 13.3526
L44.9223 13.2098
" />
<path d="M44.8508 12.7098
L44.8508 12.1383
" />
<path d="M44.3508 12.4955
L45.6365 12.4955
" />
<path d="M45.6365 12.4955
L45.7794 12.4241
" />
<path d="M45.7794 12.4241
L45.8508 12.2812
" />
<path d="M45.8508 12.2812
L45.8508 12.1383
" />
<path d="M45.8508 11.6383
L44.8508 11.6383
" />
<path d="M45.1365 11.6383
L44.9937 11.5669
" />
<path d="M44.9937 11.5669
L44.9223 11.4955
" />
<path d="M44.9223 11.4955
L44.8508 11.3526
" />
<path d="M44.8508 11.3526
L44.8508 11.2098
" />
<path d="M45.8508 10.0669
L45.0651 10.0669
" />
<path d="M45.0651 10.0669
L44.9223 10.1383
" />
<path d="M44.9223 10.1383
L44.8508 10.2812
" />
<path d="M44.8508 10.2812
L44.8508 10.5669
" />
<path d="M44.8508 10.5669
L44.9223 10.7098
" />
<path d="M45.7794 10.0669
L45.8508 10.2098
" />
<path d="M45.8508 10.2098
L45.8508 10.5669
" />
<path d="M45.8508 10.5669
L45.7794 10.7098
" />
<path d="M45.7794 10.7098
L45.6365 10.7812
" />
<path d="M45.6365 10.7812
L45.4937 10.7812
" />
<path d="M45.4937 10.7812
L45.3508 10.7098
" />
<path d="M45.3508 10.7098
L45.2794 10.5669
" />
<path d="M45.2794 10.5669
L45.2794 10.2098
" />
<path d="M45.2794 10.2098
L45.2080 10.0669
" />
<path d="M44.8508 9.3526
L45.8508 9.3526
" />
<path d="M44.9937 9.3526
L44.9223 9.2812
" />
<path d="M44.9223 9.2812
L44.8508 9.1383
" />
<path d="M44.8508 9.1383
L44.8508 8.9241
" />
<path d="M44.8508 8.9241
L44.9223 8.7812
" />
<path d="M44.9223 8.7812
L45.0651 8.7098
" />
<path d="M45.0651 8.7098
L45.8508 8.7098
" />
<path d="M45.8508 7.3526
L45.0651 7.3526
" />
<path d="M45.0651 7.3526
L44.9223 7.4241
" />
<path d="M44.9223 7.4241
L44.8508 7.5669
" />
<path d="M44.8508 7.5669
L44.8508 7.8526
" />
<path d="M44.8508 7.8526
L44.9223 7.9955
" />
<path d="M45.7794 7.3526
L45.8508 7.4955
" />
<path d="M45.8508 7.4955
L45.8508 7.8526
" />
<path d="M45.8508 7.8526
L45.7794 7.9955
" />
<path d="M45.7794 7.9955
L45.6365 8.0669
" />
<path d="M45.6365 8.0669
L45.4937 8.0669
" />
<path d="M45.4937 8.0669
L45.3508 7.9955
" />
<path d="M45.3508 7.9955
L45.2794 7.8526
" />
<path d="M45.2794 7.8526
L45.2794 7.4955
" />
<path d="M45.2794 7.4955
L45.2080 7.3526
" />
</g><g transform="rotate(-180.000000 28.5500 41.4649)">
<text x="28.5500" y="41.4649"
textLength="15.7429" font-size="2.0000" lengthAdjust="spacingAndGlyphs"
text-anchor="start" opacity="0">FAB ACADEMY</text>
</g>
<g class="stroked-text"><desc>FAB ACADEMY</desc>
<path d="M27.4955 42.4498
L27.9955 42.4498
" />
<path d="M27.9955 41.6641
L27.9955 43.1641
" />
<path d="M27.9955 43.1641
L27.2812 43.1641
" />
<path d="M26.7812 42.0927
L26.0669 42.0927
" />
<path d="M26.9241 41.6641
L26.4241 43.1641
" />
<path d="M26.4241 43.1641
L25.9241 41.6641
" />
<path d="M24.9241 42.4498
L24.7098 42.3784
" />
<path d="M24.7098 42.3784
L24.6383 42.3069
" />
<path d="M24.6383 42.3069
L24.5669 42.1641
" />
<path d="M24.5669 42.1641
L24.5669 41.9498
" />
<path d="M24.5669 41.9498
L24.6383 41.8069
" />
<path d="M24.6383 41.8069
L24.7098 41.7355
" />
<path d="M24.7098 41.7355
L24.8526 41.6641
" />
<path d="M24.8526 41.6641
L25.4241 41.6641
" />
<path d="M25.4241 41.6641
L25.4241 43.1641
" />
<path d="M25.4241 43.1641
L24.9241 43.1641
" />
<path d="M24.9241 43.1641
L24.7812 43.0927
" />
<path d="M24.7812 43.0927
L24.7098 43.0212
" />
<path d="M24.7098 43.0212
L24.6383 42.8784
" />
<path d="M24.6383 42.8784
L24.6383 42.7355
" />
<path d="M24.6383 42.7355
L24.7098 42.5927
" />
<path d="M24.7098 42.5927
L24.7812 42.5212
" />
<path d="M24.7812 42.5212
L24.9241 42.4498
" />
<path d="M24.9241 42.4498
L25.4241 42.4498
" />
<path d="M22.8526 42.0927
L22.1383 42.0927
" />
<path d="M22.9955 41.6641
L22.4955 43.1641
" />
<path d="M22.4955 43.1641
L21.9955 41.6641
" />
<path d="M20.6383 41.8069
L20.7098 41.7355
" />
<path d="M20.7098 41.7355
L20.9241 41.6641
" />
<path d="M20.9241 41.6641
L21.0669 41.6641
" />
<path d="M21.0669 41.6641
L21.2812 41.7355
" />
<path d="M21.2812 41.7355
L21.4241 41.8784
" />
<path d="M21.4241 41.8784
L21.4955 42.0212
" />
<path d="M21.4955 42.0212
L21.5669 42.3069
" />
<path d="M21.5669 42.3069
L21.5669 42.5212
" />
<path d="M21.5669 42.5212
L21.4955 42.8069
" />
<path d="M21.4955 42.8069
L21.4241 42.9498
" />
<path d="M21.4241 42.9498
L21.2812 43.0927
" />
<path d="M21.2812 43.0927
L21.0669 43.1641
" />
<path d="M21.0669 43.1641
L20.9241 43.1641
" />
<path d="M20.9241 43.1641
L20.7098 43.0927
" />
<path d="M20.7098 43.0927
L20.6383 43.0212
" />
<path d="M20.0669 42.0927
L19.3526 42.0927
" />
<path d="M20.2098 41.6641
L19.7098 43.1641
" />
<path d="M19.7098 43.1641
L19.2098 41.6641
" />
<path d="M18.7098 41.6641
L18.7098 43.1641
" />
<path d="M18.7098 43.1641
L18.3526 43.1641
" />
<path d="M18.3526 43.1641
L18.1383 43.0927
" />
<path d="M18.1383 43.0927
L17.9955 42.9498
" />
<path d="M17.9955 42.9498
L17.9241 42.8069
" />
<path d="M17.9241 42.8069
L17.8526 42.5212
" />
<path d="M17.8526 42.5212
L17.8526 42.3069
" />
<path d="M17.8526 42.3069
L17.9241 42.0212
" />
<path d="M17.9241 42.0212
L17.9955 41.8784
" />
<path d="M17.9955 41.8784
L18.1383 41.7355
" />
<path d="M18.1383 41.7355
L18.3526 41.6641
" />
<path d="M18.3526 41.6641
L18.7098 41.6641
" />
<path d="M17.2098 42.4498
L16.7098 42.4498
" />
<path d="M16.4955 41.6641
L17.2098 41.6641
" />
<path d="M17.2098 41.6641
L17.2098 43.1641
" />
<path d="M17.2098 43.1641
L16.4955 43.1641
" />
<path d="M15.8526 41.6641
L15.8526 43.1641
" />
<path d="M15.8526 43.1641
L15.3526 42.0927
" />
<path d="M15.3526 42.0927
L14.8526 43.1641
" />
<path d="M14.8526 43.1641
L14.8526 41.6641
" />
<path d="M13.8526 42.3784
L13.8526 41.6641
" />
<path d="M14.3526 43.1641
L13.8526 42.3784
" />
<path d="M13.8526 42.3784
L13.3526 43.1641
" />
</g><g transform="rotate(-180.000000 28.5500 39.0500)">
<text x="28.5500" y="39.0500"
textLength="15.8857" font-size="2.0000" lengthAdjust="spacingAndGlyphs"
text-anchor="start" opacity="0">PUEBLA 2024</text>
</g>
<g class="stroked-text"><desc>PUEBLA 2024</desc>
<path d="M27.9955 39.2492
L27.9955 40.7492
" />
<path d="M27.9955 40.7492
L27.4241 40.7492
" />
<path d="M27.4241 40.7492
L27.2812 40.6777
" />
<path d="M27.2812 40.6777
L27.2098 40.6063
" />
<path d="M27.2098 40.6063
L27.1383 40.4635
" />
<path d="M27.1383 40.4635
L27.1383 40.2492
" />
<path d="M27.1383 40.2492
L27.2098 40.1063
" />
<path d="M27.2098 40.1063
L27.2812 40.0349
" />
<path d="M27.2812 40.0349
L27.4241 39.9635
" />
<path d="M27.4241 39.9635
L27.9955 39.9635
" />
<path d="M26.4955 40.7492
L26.4955 39.5349
" />
<path d="M26.4955 39.5349
L26.4241 39.3920
" />
<path d="M26.4241 39.3920
L26.3526 39.3206
" />
<path d="M26.3526 39.3206
L26.2098 39.2492
" />
<path d="M26.2098 39.2492
L25.9241 39.2492
" />
<path d="M25.9241 39.2492
L25.7812 39.3206
" />
<path d="M25.7812 39.3206
L25.7098 39.3920
" />
<path d="M25.7098 39.3920
L25.6383 39.5349
" />
<path d="M25.6383 39.5349
L25.6383 40.7492
" />
<path d="M24.9241 40.0349
L24.4241 40.0349
" />
<path d="M24.2098 39.2492
L24.9241 39.2492
" />
<path d="M24.9241 39.2492
L24.9241 40.7492
" />
<path d="M24.9241 40.7492
L24.2098 40.7492
" />
<path d="M23.0669 40.0349
L22.8526 39.9635
" />
<path d="M22.8526 39.9635
L22.7812 39.8920
" />
<path d="M22.7812 39.8920
L22.7098 39.7492
" />
<path d="M22.7098 39.7492
L22.7098 39.5349
" />
<path d="M22.7098 39.5349
L22.7812 39.3920
" />
<path d="M22.7812 39.3920
L22.8526 39.3206
" />
<path d="M22.8526 39.3206
L22.9955 39.2492
" />
<path d="M22.9955 39.2492
L23.5669 39.2492
" />
<path d="M23.5669 39.2492
L23.5669 40.7492
" />
<path d="M23.5669 40.7492
L23.0669 40.7492
" />
<path d="M23.0669 40.7492
L22.9241 40.6777
" />
<path d="M22.9241 40.6777
L22.8526 40.6063
" />
<path d="M22.8526 40.6063
L22.7812 40.4635
" />
<path d="M22.7812 40.4635
L22.7812 40.3206
" />
<path d="M22.7812 40.3206
L22.8526 40.1777
" />
<path d="M22.8526 40.1777
L22.9241 40.1063
" />
<path d="M22.9241 40.1063
L23.0669 40.0349
" />
<path d="M23.0669 40.0349
L23.5669 40.0349
" />
<path d="M21.3526 39.2492
L22.0669 39.2492
" />
<path d="M22.0669 39.2492
L22.0669 40.7492
" />
<path d="M20.9241 39.6777
L20.2098 39.6777
" />
<path d="M21.0669 39.2492
L20.5669 40.7492
" />
<path d="M20.5669 40.7492
L20.0669 39.2492
" />
<path d="M18.4955 40.6063
L18.4241 40.6777
" />
<path d="M18.4241 40.6777
L18.2812 40.7492
" />
<path d="M18.2812 40.7492
L17.9241 40.7492
" />
<path d="M17.9241 40.7492
L17.7812 40.6777
" />
<path d="M17.7812 40.6777
L17.7098 40.6063
" />
<path d="M17.7098 40.6063
L17.6383 40.4635
" />
<path d="M17.6383 40.4635
L17.6383 40.3206
" />
<path d="M17.6383 40.3206
L17.7098 40.1063
" />
<path d="M17.7098 40.1063
L18.5669 39.2492
" />
<path d="M18.5669 39.2492
L17.6383 39.2492
" />
<path d="M16.7098 40.7492
L16.5669 40.7492
" />
<path d="M16.5669 40.7492
L16.4241 40.6777
" />
<path d="M16.4241 40.6777
L16.3526 40.6063
" />
<path d="M16.3526 40.6063
L16.2812 40.4635
" />
<path d="M16.2812 40.4635
L16.2098 40.1777
" />
<path d="M16.2098 40.1777
L16.2098 39.8206
" />
<path d="M16.2098 39.8206
L16.2812 39.5349
" />
<path d="M16.2812 39.5349
L16.3526 39.3920
" />
<path d="M16.3526 39.3920
L16.4241 39.3206
" />
<path d="M16.4241 39.3206
L16.5669 39.2492
" />
<path d="M16.5669 39.2492
L16.7098 39.2492
" />
<path d="M16.7098 39.2492
L16.8526 39.3206
" />
<path d="M16.8526 39.3206
L16.9241 39.3920
" />
<path d="M16.9241 39.3920
L16.9955 39.5349
" />
<path d="M16.9955 39.5349
L17.0669 39.8206
" />
<path d="M17.0669 39.8206
L17.0669 40.1777
" />
<path d="M17.0669 40.1777
L16.9955 40.4635
" />
<path d="M16.9955 40.4635
L16.9241 40.6063
" />
<path d="M16.9241 40.6063
L16.8526 40.6777
" />
<path d="M16.8526 40.6777
L16.7098 40.7492
" />
<path d="M15.6383 40.6063
L15.5669 40.6777
" />
<path d="M15.5669 40.6777
L15.4241 40.7492
" />
<path d="M15.4241 40.7492
L15.0669 40.7492
" />
<path d="M15.0669 40.7492
L14.9241 40.6777
" />
<path d="M14.9241 40.6777
L14.8526 40.6063
" />
<path d="M14.8526 40.6063
L14.7812 40.4635
" />
<path d="M14.7812 40.4635
L14.7812 40.3206
" />
<path d="M14.7812 40.3206
L14.8526 40.1063
" />
<path d="M14.8526 40.1063
L15.7098 39.2492
" />
<path d="M15.7098 39.2492
L14.7812 39.2492
" />
<path d="M13.4955 40.2492
L13.4955 39.2492
" />
<path d="M13.8526 40.8206
L14.2098 39.7492
" />
<path d="M14.2098 39.7492
L13.2812 39.7492
" />
</g><path style="fill:#000000; fill-opacity:1.0000; stroke:none;fill-rule:evenodd;"
d="M 40.0500,62.1350
40.0500,60.4350
41.4500,60.4350
41.4500,62.1350
Z" /> 
<path style="fill:#000000; fill-opacity:1.0000; stroke:none;fill-rule:evenodd;"
d="M 43.4500,62.1350
43.4500,60.4350
44.8500,60.4350
44.8500,62.1350
Z" /> 
<path style="fill:#000000; fill-opacity:1.0000; stroke:none;fill-rule:evenodd;"
d="M 28.7400,18.1500
27.7400,18.1500
27.7400,15.0000
28.7400,15.0000
Z" /> 
<path style="fill:#000000; fill-opacity:1.0000; stroke:none;fill-rule:evenodd;"
d="M 28.7400,13.1000
27.7400,13.1000
27.7400,9.9500
28.7400,9.9500
Z" /> 
<path style="fill:#000000; fill-opacity:1.0000; stroke:none;fill-rule:evenodd;"
d="M 31.2800,18.1500
30.2800,18.1500
30.2800,15.0000
31.2800,15.0000
Z" /> 
<path style="fill:#000000; fill-opacity:1.0000; stroke:none;fill-rule:evenodd;"
d="M 31.2800,13.1000
30.2800,13.1000
30.2800,9.9500
31.2800,9.9500
Z" /> 
<path style="fill:#000000; fill-opacity:1.0000; stroke:none;fill-rule:evenodd;"
d="M 33.8200,18.1500
32.8200,18.1500
32.8200,15.0000
33.8200,15.0000
Z" /> 
<path style="fill:#000000; fill-opacity:1.0000; stroke:none;fill-rule:evenodd;"
d="M 33.8200,13.1000
32.8200,13.1000
32.8200,9.9500
33.8200,9.9500
Z" /> 
<path style="fill:#000000; fill-opacity:1.0000; stroke:none;fill-rule:evenodd;"
d="M 36.3600,18.1500
35.3600,18.1500
35.3600,15.0000
36.3600,15.0000
Z" /> 
<path style="fill:#000000; fill-opacity:1.0000; stroke:none;fill-rule:evenodd;"
d="M 36.3600,13.1000
35.3600,13.1000
35.3600,9.9500
36.3600,9.9500
Z" /> 
<path style="fill:#000000; fill-opacity:1.0000; stroke:none;fill-rule:evenodd;"
d="M 27.5000,59.1500
25.8000,59.1500
25.8000,57.7500
27.5000,57.7500
Z" /> 
<path style="fill:#000000; fill-opacity:1.0000; stroke:none;fill-rule:evenodd;"
d="M 27.5000,55.7500
25.8000,55.7500
25.8000,54.3500
27.5000,54.3500
Z" /> 
<path style="fill:#000000; fill-opacity:1.0000; stroke:none;fill-rule:evenodd;"
d="M 9.6000,48.0000
9.6000,49.7000
7.1000,49.7000
7.1000,48.0000
Z" /> 
<path style="fill:#000000; fill-opacity:1.0000; stroke:none;fill-rule:evenodd;"
d="M 9.6000,45.4600
9.6000,47.1600
7.1000,47.1600
7.1000,45.4600
Z" /> 
<path style="fill:#000000; fill-opacity:1.0000; stroke:none;fill-rule:evenodd;"
d="M 9.6000,42.9200
9.6000,44.6200
7.1000,44.6200
7.1000,42.9200
Z" /> 
<path style="fill:#000000; fill-opacity:1.0000; stroke:none;fill-rule:evenodd;"
d="M 9.6000,40.3800
9.6000,42.0800
7.1000,42.0800
7.1000,40.3800
Z" /> 
<path style="fill:#000000; fill-opacity:1.0000; stroke:none;fill-rule:evenodd;"
d="M 44.8500,53.9200
44.8500,55.6200
43.4500,55.6200
43.4500,53.9200
Z" /> 
<path style="fill:#000000; fill-opacity:1.0000; stroke:none;fill-rule:evenodd;"
d="M 41.4500,53.9200
41.4500,55.6200
40.0500,55.6200
40.0500,53.9200
Z" /> 
<path style="fill:#000000; fill-opacity:1.0000; stroke:none;fill-rule:evenodd;"
d="M 30.9500,58.9000
30.9500,57.2000
32.3500,57.2000
32.3500,58.9000
Z" /> 
<path style="fill:#000000; fill-opacity:1.0000; stroke:none;fill-rule:evenodd;"
d="M 34.3500,58.9000
34.3500,57.2000
35.7500,57.2000
35.7500,58.9000
Z" /> 
<path style="fill:#000000; fill-opacity:1.0000; stroke:none;fill-rule:evenodd;"
d="M 40.0500,58.8750
40.0500,57.1750
41.4500,57.1750
41.4500,58.8750
Z" /> 
<path style="fill:#000000; fill-opacity:1.0000; stroke:none;fill-rule:evenodd;"
d="M 43.4500,58.8750
43.4500,57.1750
44.8500,57.1750
44.8500,58.8750
Z" /> 
<path style="fill:#000000; fill-opacity:1.0000; stroke:none;fill-rule:evenodd;"
d="M 14.6000,28.5500
14.6000,30.2500
12.1000,30.2500
12.1000,28.5500
Z" /> 
<path style="fill:#000000; fill-opacity:1.0000; stroke:none;fill-rule:evenodd;"
d="M 14.6000,26.0100
14.6000,27.7100
12.1000,27.7100
12.1000,26.0100
Z" /> 
<path style="fill:#000000; fill-opacity:1.0000; stroke:none;fill-rule:evenodd;"
d="M 14.6000,23.4700
14.6000,25.1700
12.1000,25.1700
12.1000,23.4700
Z" /> 
<path style="fill:#000000; fill-opacity:1.0000; stroke:none;fill-rule:evenodd;"
d="M 14.6000,20.9300
14.6000,22.6300
12.1000,22.6300
12.1000,20.9300
Z" /> 
<path style="fill:#000000; fill-opacity:1.0000; stroke:none;fill-rule:evenodd;"
d="M 14.6000,18.3900
14.6000,20.0900
12.1000,20.0900
12.1000,18.3900
Z" /> 
<path style="fill:#000000; fill-opacity:1.0000; stroke:none;fill-rule:evenodd;"
d="M 14.6000,15.8500
14.6000,17.5500
12.1000,17.5500
12.1000,15.8500
Z" /> 
<path style="fill:#000000; fill-opacity:1.0000; stroke:none;fill-rule:evenodd;"
d="M 30.9500,55.9000
30.9500,54.2000
32.3500,54.2000
32.3500,55.9000
Z" /> 
<path style="fill:#000000; fill-opacity:1.0000; stroke:none;fill-rule:evenodd;"
d="M 34.3500,55.9000
34.3500,54.2000
35.7500,54.2000
35.7500,55.9000
Z" /> 
<path style="fill:#000000; fill-opacity:1.0000; stroke:none;fill-rule:evenodd;"
d="M 29.5400,30.5250
28.9400,30.5250
28.9400,28.5250
29.5400,28.5250
Z" /> 
<path style="fill:#000000; fill-opacity:1.0000; stroke:none;fill-rule:evenodd;"
d="M 30.8100,30.5250
30.2100,30.5250
30.2100,28.5250
30.8100,28.5250
Z" /> 
<path style="fill:#000000; fill-opacity:1.0000; stroke:none;fill-rule:evenodd;"
d="M 32.0800,30.5250
31.4800,30.5250
31.4800,28.5250
32.0800,28.5250
Z" /> 
<path style="fill:#000000; fill-opacity:1.0000; stroke:none;fill-rule:evenodd;"
d="M 33.3500,30.5250
32.7500,30.5250
32.7500,28.5250
33.3500,28.5250
Z" /> 
<path style="fill:#000000; fill-opacity:1.0000; stroke:none;fill-rule:evenodd;"
d="M 34.6200,30.5250
34.0200,30.5250
34.0200,28.5250
34.6200,28.5250
Z" /> 
<path style="fill:#000000; fill-opacity:1.0000; stroke:none;fill-rule:evenodd;"
d="M 35.8900,30.5250
35.2900,30.5250
35.2900,28.5250
35.8900,28.5250
Z" /> 
<path style="fill:#000000; fill-opacity:1.0000; stroke:none;fill-rule:evenodd;"
d="M 37.1600,30.5250
36.5600,30.5250
36.5600,28.5250
37.1600,28.5250
Z" /> 
<path style="fill:#000000; fill-opacity:1.0000; stroke:none;fill-rule:evenodd;"
d="M 37.1600,25.5750
36.5600,25.5750
36.5600,23.5750
37.1600,23.5750
Z" /> 
<path style="fill:#000000; fill-opacity:1.0000; stroke:none;fill-rule:evenodd;"
d="M 35.8900,25.5750
35.2900,25.5750
35.2900,23.5750
35.8900,23.5750
Z" /> 
<path style="fill:#000000; fill-opacity:1.0000; stroke:none;fill-rule:evenodd;"
d="M 34.6200,25.5750
34.0200,25.5750
34.0200,23.5750
34.6200,23.5750
Z" /> 
<path style="fill:#000000; fill-opacity:1.0000; stroke:none;fill-rule:evenodd;"
d="M 33.3500,25.5750
32.7500,25.5750
32.7500,23.5750
33.3500,23.5750
Z" /> 
<path style="fill:#000000; fill-opacity:1.0000; stroke:none;fill-rule:evenodd;"
d="M 32.0800,25.5750
31.4800,25.5750
31.4800,23.5750
32.0800,23.5750
Z" /> 
<path style="fill:#000000; fill-opacity:1.0000; stroke:none;fill-rule:evenodd;"
d="M 30.8100,25.5750
30.2100,25.5750
30.2100,23.5750
30.8100,23.5750
Z" /> 
<path style="fill:#000000; fill-opacity:1.0000; stroke:none;fill-rule:evenodd;"
d="M 29.5400,25.5750
28.9400,25.5750
28.9400,23.5750
29.5400,23.5750
Z" /> 
<path style="fill:#000000; fill-opacity:1.0000; stroke:none;fill-rule:evenodd;"
d="M 22.4000,62.3000
20.9000,62.3000
20.9000,59.8000
22.4000,59.8000
Z" /> 
<path style="fill:#000000; fill-opacity:1.0000; stroke:none;fill-rule:evenodd;"
d="M 22.4000,54.3000
20.9000,54.3000
20.9000,51.8000
22.4000,51.8000
Z" /> 
<path style="fill:#000000; fill-opacity:1.0000; stroke:none;fill-rule:evenodd;"
d="M 31.9000,7.7500
30.2000,7.7500
30.2000,6.3500
31.9000,6.3500
Z" /> 
<path style="fill:#000000; fill-opacity:1.0000; stroke:none;fill-rule:evenodd;"
d="M 31.9000,4.3500
30.2000,4.3500
30.2000,2.9500
31.9000,2.9500
Z" /> 
<path style="fill:#000000; fill-opacity:1.0000; stroke:none;fill-rule:evenodd;"
d="M 44.6000,43.0000
44.6000,44.7000
42.1000,44.7000
42.1000,43.0000
Z" /> 
<path style="fill:#000000; fill-opacity:1.0000; stroke:none;fill-rule:evenodd;"
d="M 44.6000,40.4600
44.6000,42.1600
42.1000,42.1600
42.1000,40.4600
Z" /> 
<path style="fill:#000000; fill-opacity:1.0000; stroke:none;fill-rule:evenodd;"
d="M 44.6000,37.9200
44.6000,39.6200
42.1000,39.6200
42.1000,37.9200
Z" /> 
<path style="fill:#000000; fill-opacity:1.0000; stroke:none;fill-rule:evenodd;"
d="M 44.6000,35.3800
44.6000,37.0800
42.1000,37.0800
42.1000,35.3800
Z" /> 
<path style="fill:#000000; fill-opacity:1.0000; stroke:none;fill-rule:evenodd;"
d="M 24.9000,27.1500
23.2000,27.1500
23.2000,25.7500
24.9000,25.7500
Z" /> 
<path style="fill:#000000; fill-opacity:1.0000; stroke:none;fill-rule:evenodd;"
d="M 24.9000,23.7500
23.2000,23.7500
23.2000,22.3500
24.9000,22.3500
Z" /> 
</g>
<g style="fill:none; 
stroke:#000000; stroke-width:0.8000; stroke-opacity:1; 
stroke-linecap:round; stroke-linejoin:round;">
<path d="M35.5900 23.0850
L35.5900 24.5750
" />
<path d="M37.3000 21.3750
L35.5900 23.0850
" />
<path d="M37.3000 14.3000
L37.3000 21.3750
" />
<path d="M37.0500 14.0500
L37.3000 14.3000
" />
<path d="M28.2400 12.6000
L29.6900 14.0500
" />
<path d="M29.6900 14.0500
L37.0500 14.0500
" />
<path d="M28.2400 11.5250
L28.2400 12.6000
" />
<path d="M33.0500 16.8450
L33.3200 16.5750
" />
<path d="M33.0500 24.5750
L33.0500 16.8450
" />
<path d="M35.8600 19.7400
L35.8600 16.5750
" />
<path d="M34.3200 21.2800
L35.8600 19.7400
" />
<path d="M34.3200 24.5750
L34.3200 21.2800
" />
<path d="M33.0500 33.0500
L33.0500 29.5250
" />
<path d="M36.2300 36.2300
L33.0500 33.0500
" />
<path d="M43.3500 36.2300
L36.2300 36.2300
" />
<path d="M37.8100 41.3100
L43.3500 41.3100
" />
<path d="M31.7800 35.2800
L37.8100 41.3100
" />
<path d="M31.7800 29.5250
L31.7800 35.2800
" />
</g>
<g style="fill:none; 
stroke:#000000; stroke-width:0.7000; stroke-opacity:1; 
stroke-linecap:round; stroke-linejoin:round;">
<path d="M37.1000 43.8500
L43.3500 43.8500
" />
<path d="M30.5100 37.2600
L37.1000 43.8500
" />
<path d="M30.5100 29.5250
L30.5100 37.2600
" />
<path d="M29.2400 39.9900
L29.2400 29.5250
" />
<path d="M32.0500 42.6700
L31.9200 42.6700
" />
<path d="M44.1500 54.7700
L32.0500 42.6700
" />
<path d="M31.9200 42.6700
L29.2400 39.9900
" />
</g>
<g style="fill:none; 
stroke:#000000; stroke-width:0.5000; stroke-opacity:1; 
stroke-linecap:round; stroke-linejoin:round;">
<path d="M33.3000 59.3000
L35.2850 61.2850
" />
<path d="M35.2850 61.2850
L40.7500 61.2850
" />
</g>
<g style="fill:none; 
stroke:#000000; stroke-width:0.8000; stroke-opacity:1; 
stroke-linecap:round; stroke-linejoin:round;">
<path d="M42.3000 27.8000
L42.3000 8.8000
" />
<path d="M37.1500 3.6500
L31.0500 3.6500
" />
<path d="M37.0500 32.3000
L37.8000 32.3000
" />
<path d="M37.8000 32.3000
L42.3000 27.8000
" />
<path d="M42.3000 8.8000
L37.1500 3.6500
" />
<path d="M35.5900 30.8400
L37.0500 32.3000
" />
<path d="M35.5900 29.5250
L35.5900 30.8400
" />
</g>
<g style="fill:none; 
stroke:#000000; stroke-width:0.7000; stroke-opacity:1; 
stroke-linecap:round; stroke-linejoin:round;">
<path d="M8.3500 43.7700
L8.3500 41.2300
" />
</g>
<g style="fill:none; 
stroke:#000000; stroke-width:0.8000; stroke-opacity:1; 
stroke-linecap:round; stroke-linejoin:round;">
<path d="M8.3500 48.8500
L8.3500 46.3100
" />
<path d="M20.5500 61.0500
L8.3500 48.8500
" />
<path d="M21.6500 61.0500
L20.5500 61.0500
" />
</g>
<g style="fill:none; 
stroke:#000000; stroke-width:0.7000; stroke-opacity:1; 
stroke-linecap:round; stroke-linejoin:round;">
<path d="M17.8000 52.5600
L17.8000 46.8000
" />
<path d="M3.3000 47.3000
L20.5500 64.5500
" />
<path d="M3.3000 30.3000
L3.3000 47.3000
" />
<path d="M24.0500 64.5500
L24.0500 58.8100
" />
<path d="M9.2800 24.3200
L3.3000 30.3000
" />
<path d="M24.0500 58.8100
L17.8000 52.5600
" />
<path d="M13.3500 24.3200
L9.2800 24.3200
" />
<path d="M20.5500 64.5500
L24.0500 64.5500
" />
<path d="M17.8000 46.8000
L21.3000 46.8000
" />
<path d="M13.3300 46.8000
L17.8000 46.8000
" />
<path d="M26.6500 52.1500
L26.6500 55.0500
" />
<path d="M21.3000 46.8000
L26.6500 52.1500
" />
<path d="M10.3000 43.7700
L13.3300 46.8000
" />
<path d="M8.3500 43.7700
L10.3000 43.7700
" />
<path d="M24.2150 34.5500
L5.5500 34.5500
" />
<path d="M29.2400 29.5250
L24.2150 34.5500
" />
</g>
<g style="fill:none; 
stroke:#000000; stroke-width:0.8000; stroke-opacity:1; 
stroke-linecap:round; stroke-linejoin:round;">
<path d="M5.5500 34.5500
L5.5500 44.5300
" />
<path d="M5.5500 32.6100
L5.5500 34.5500
" />
<path d="M5.5500 44.5300
L7.3300 46.3100
" />
<path d="M7.3300 46.3100
L8.3500 46.3100
" />
<path d="M11.3000 26.8600
L5.5500 32.6100
" />
<path d="M13.3500 26.8600
L11.3000 26.8600
" />
</g>
<g style="fill:none; 
stroke:#000000; stroke-width:0.7000; stroke-opacity:1; 
stroke-linecap:round; stroke-linejoin:round;">
<path d="M13.3500 24.3200
L13.6050 24.5750
" />
<path d="M13.6050 24.5750
L29.2400 24.5750
" />
</g>
<g style="fill:none; 
stroke:#000000; stroke-width:0.8000; stroke-opacity:1; 
stroke-linecap:round; stroke-linejoin:round;">
<path d="M13.3500 21.7800
L22.7800 21.7800
" />
<path d="M22.7800 21.7800
L24.0500 23.0500
" />
<path d="M20.5250 19.2400
L28.2400 11.5250
" />
<path d="M13.3500 19.2400
L20.5250 19.2400
" />
</g>
<g style="fill:none; 
stroke:#000000; stroke-width:0.7000; stroke-opacity:1; 
stroke-linecap:round; stroke-linejoin:round;">
<path d="M34.5500 5.3000
L35.3000 6.0500
" />
</g>
<g style="fill:none; 
stroke:#000000; stroke-width:0.8000; stroke-opacity:1; 
stroke-linecap:round; stroke-linejoin:round;">
<path d="M13.3500 16.7000
L24.7500 5.3000
" />
</g>
<g style="fill:none; 
stroke:#000000; stroke-width:0.7000; stroke-opacity:1; 
stroke-linecap:round; stroke-linejoin:round;">
<path d="M24.7500 5.3000
L34.5500 5.3000
" />
</g>
<g style="fill:none; 
stroke:#000000; stroke-width:0.8000; stroke-opacity:1; 
stroke-linecap:round; stroke-linejoin:round;">
<path d="M36.3000 7.0500
L35.3000 6.0500
" />
<path d="M40.5500 11.3000
L36.3000 7.0500
" />
<path d="M31.0500 11.2550
L30.7800 11.5250
" />
<path d="M31.0500 7.0500
L31.0500 11.2550
" />
<path d="M38.5250 24.5750
L36.8600 24.5750
" />
<path d="M38.5500 24.5500
L38.5250 24.5750
" />
<path d="M38.5500 12.9150
L38.5500 24.5500
" />
<path d="M37.1600 11.5250
L38.5500 12.9150
" />
<path d="M35.8600 11.5250
L37.1600 11.5250
" />
<path d="M40.5500 26.3000
L40.5500 11.3000
" />
<path d="M37.3250 29.5250
L40.5500 26.3000
" />
<path d="M35.3000 6.0500
L33.3200 8.0300
" />
<path d="M33.3200 8.0300
L33.3200 11.5250
" />
<path d="M36.8600 29.5250
L37.3250 29.5250
" />
<path d="M46.3000 33.8000
L46.3000 37.8700
" />
<path d="M46.3000 37.8700
L45.4000 38.7700
" />
<path d="M34.3200 32.0700
L36.0500 33.8000
" />
<path d="M36.0500 33.8000
L46.3000 33.8000
" />
<path d="M34.3200 29.5250
L34.3200 32.0700
" />
</g>
<g style="fill:none; 
stroke:#000000; stroke-width:0.7000; stroke-opacity:1; 
stroke-linecap:round; stroke-linejoin:round;">
<path d="M45.4000 38.9000
L45.4000 38.7700
" />
<path d="M47.5500 57.8850
L47.5500 41.0500
" />
<path d="M47.5500 41.0500
L45.4000 38.9000
" />
<path d="M44.1500 61.2850
L47.5500 57.8850
" />
</g>
<g style="fill:none; 
stroke:#000000; stroke-width:0.8000; stroke-opacity:1; 
stroke-linecap:round; stroke-linejoin:round;">
<path d="M45.4000 38.7700
L43.3500 38.7700
" />
</g>
<g style="fill:none; 
stroke:#000000; stroke-width:0.5000; stroke-opacity:1; 
stroke-linecap:round; stroke-linejoin:round;">
<path d="M36.4850 26.4500
L24.0500 26.4500
" />
<path d="M36.8600 24.5750
L36.8600 26.0750
" />
<path d="M36.8600 26.0750
L36.4850 26.4500
" />
</g>
<g style="fill:none; 
stroke:#000000; stroke-width:0.7000; stroke-opacity:1; 
stroke-linecap:round; stroke-linejoin:round;">
<path d="M46.3000 55.8750
L44.1500 58.0250
" />
<path d="M46.3000 43.3400
L46.3000 55.8750
" />
<path d="M44.2700 41.3100
L46.3000 43.3400
" />
<path d="M43.3500 41.3100
L44.2700 41.3100
" />
</g>
<g style="fill:none; 
stroke:#000000; stroke-width:0.5000; stroke-opacity:1; 
stroke-linecap:round; stroke-linejoin:round;">
<path d="M35.0500 55.0500
L33.3000 56.8000
" />
<path d="M33.3000 56.8000
L33.3000 59.3000
" />
</g>
<g style="fill:none; 
stroke:#000000; stroke-width:0.6000; stroke-opacity:1; 
stroke-linecap:round; stroke-linejoin:round;">
<path d="M30.5100 21.0100
L30.5100 24.5750
" />
<path d="M28.2400 18.7400
L30.5100 21.0100
" />
<path d="M28.2400 16.5750
L28.2400 18.7400
" />
<path d="M30.7800 18.5300
L30.7800 16.5750
" />
<path d="M31.7800 19.5300
L30.7800 18.5300
" />
<path d="M31.7800 24.5750
L31.7800 19.5300
" />
<path d="M27.6700 27.4300
L32.4300 27.4300
" />
<path d="M33.0500 28.0500
L33.0500 29.5250
" />
<path d="M25.7000 29.4000
L27.6700 27.4300
" />
<path d="M13.3500 29.4000
L25.7000 29.4000
" />
<path d="M32.4300 27.4300
L33.0500 28.0500
" />
</g>
<g style="fill:none; 
stroke:#000000; stroke-width:0.7000; stroke-opacity:1; 
stroke-linecap:round; stroke-linejoin:round;">
<path d="M41.3850 64.0500
L44.1500 61.2850
" />
<path d="M31.3528 60.3528
L35.0500 64.0500
" />
<path d="M26.6500 58.4500
L28.5528 60.3528
" />
<path d="M28.5528 60.3528
L31.3528 60.3528
" />
<path d="M35.0500 64.0500
L41.3850 64.0500
" />
<path d="M34.6500 52.0500
L31.6500 55.0500
" />
<path d="M38.0300 52.0500
L34.6500 52.0500
" />
<path d="M40.7500 54.7700
L38.0300 52.0500
" />
<path d="M26.6500 55.0500
L31.6500 55.0500
" />
<path d="M31.6500 58.0500
L31.6500 55.0500
" />
<path d="M35.0750 58.0250
L35.0500 58.0500
" />
<path d="M40.7500 58.0250
L35.0750 58.0250
" />
<path d="M21.6500 53.0500
L21.6500 53.4500
" />
<path d="M21.6500 53.4500
L26.6500 58.4500
" />
</g> 
</svg>
