<?xml version="1.0" standalone="no"?>
 <!DOCTYPE svg PUBLIC "-//W3C//DTD SVG 1.1//EN" 
 "http://www.w3.org/Graphics/SVG/1.1/DTD/svg11.dtd"> 
<svg
  xmlns:svg="http://www.w3.org/2000/svg"
  xmlns="http://www.w3.org/2000/svg"
  xmlns:xlink="http://www.w3.org/1999/xlink"
  version="1.1"
  width="52.9844mm" height="41.9862mm" viewBox="0.0000 0.0000 52.9844 41.9862">
<title>SVG Image created as Proyectofinalinstrumentacion-F_Cu.svg date 2024/04/24 18:29:36 </title>
  <desc>Image generated by PCBNEW </desc>
<g style="fill:#000000; fill-opacity:1.0000;stroke:#000000; stroke-opacity:1.0000;
stroke-linecap:round; stroke-linejoin:round;"
 transform="translate(0 0) scale(1 1)">
<path style="fill:#000000; fill-opacity:1.0000; stroke:none;fill-rule:evenodd;"
d="M 9.2000,14.3706
9.2000,12.6706
10.6000,12.6706
10.6000,14.3706
Z" /> 
<path style="fill:#000000; fill-opacity:1.0000; stroke:none;fill-rule:evenodd;"
d="M 5.8000,14.3706
5.8000,12.6706
7.2000,12.6706
7.2000,14.3706
Z" /> 
<path style="fill:#000000; fill-opacity:1.0000; stroke:none;fill-rule:evenodd;"
d="M 22.4000,35.6500
22.4000,37.3500
21.0000,37.3500
21.0000,35.6500
Z" /> 
<path style="fill:#000000; fill-opacity:1.0000; stroke:none;fill-rule:evenodd;"
d="M 25.8000,35.6500
25.8000,37.3500
24.4000,37.3500
24.4000,35.6500
Z" /> 
<path style="fill:#000000; fill-opacity:1.0000; stroke:none;fill-rule:evenodd;"
d="M 20.9500,29.1700
20.9500,27.4700
23.4500,27.4700
23.4500,29.1700
Z" /> 
<path style="fill:#000000; fill-opacity:1.0000; stroke:none;fill-rule:evenodd;"
d="M 20.9500,26.6300
20.9500,24.9300
23.4500,24.9300
23.4500,26.6300
Z" /> 
<path style="fill:#000000; fill-opacity:1.0000; stroke:none;fill-rule:evenodd;"
d="M 20.9500,24.0900
20.9500,22.3900
23.4500,22.3900
23.4500,24.0900
Z" /> 
<path style="fill:#000000; fill-opacity:1.0000; stroke:none;fill-rule:evenodd;"
d="M 20.9500,21.5500
20.9500,19.8500
23.4500,19.8500
23.4500,21.5500
Z" /> 
<path style="fill:#000000; fill-opacity:1.0000; stroke:none;fill-rule:evenodd;"
d="M 32.0500,19.6300
32.0500,21.3300
29.5500,21.3300
29.5500,19.6300
Z" /> 
<path style="fill:#000000; fill-opacity:1.0000; stroke:none;fill-rule:evenodd;"
d="M 32.0500,22.1700
32.0500,23.8700
29.5500,23.8700
29.5500,22.1700
Z" /> 
<path style="fill:#000000; fill-opacity:1.0000; stroke:none;fill-rule:evenodd;"
d="M 32.0500,24.7100
32.0500,26.4100
29.5500,26.4100
29.5500,24.7100
Z" /> 
<path style="fill:#000000; fill-opacity:1.0000; stroke:none;fill-rule:evenodd;"
d="M 32.0500,27.2500
32.0500,28.9500
29.5500,28.9500
29.5500,27.2500
Z" /> 
<path style="fill:#000000; fill-opacity:1.0000; stroke:none;fill-rule:evenodd;"
d="M 4.9500,28.6400
4.9500,26.9400
7.4500,26.9400
7.4500,28.6400
Z" /> 
<path style="fill:#000000; fill-opacity:1.0000; stroke:none;fill-rule:evenodd;"
d="M 4.9500,26.1000
4.9500,24.4000
7.4500,24.4000
7.4500,26.1000
Z" /> 
<path style="fill:#000000; fill-opacity:1.0000; stroke:none;fill-rule:evenodd;"
d="M 9.1000,6.3344
9.1000,4.6344
10.5000,4.6344
10.5000,6.3344
Z" /> 
<path style="fill:#000000; fill-opacity:1.0000; stroke:none;fill-rule:evenodd;"
d="M 5.7000,6.3344
5.7000,4.6344
7.1000,4.6344
7.1000,6.3344
Z" /> 
<path style="fill:#000000; fill-opacity:1.0000; stroke:none;fill-rule:evenodd;"
d="M 30.7500,35.7500
30.7500,37.2500
28.2500,37.2500
28.2500,35.7500
Z" /> 
<path style="fill:#000000; fill-opacity:1.0000; stroke:none;fill-rule:evenodd;"
d="M 38.7500,35.7500
38.7500,37.2500
36.2500,37.2500
36.2500,35.7500
Z" /> 
<path style="fill:#000000; fill-opacity:1.0000; stroke:none;fill-rule:evenodd;"
d="M 48.0500,19.8300
48.0500,21.5300
45.5500,21.5300
45.5500,19.8300
Z" /> 
<path style="fill:#000000; fill-opacity:1.0000; stroke:none;fill-rule:evenodd;"
d="M 48.0500,22.3700
48.0500,24.0700
45.5500,24.0700
45.5500,22.3700
Z" /> 
<path style="fill:#000000; fill-opacity:1.0000; stroke:none;fill-rule:evenodd;"
d="M 48.0500,24.9100
48.0500,26.6100
45.5500,26.6100
45.5500,24.9100
Z" /> 
<path style="fill:#000000; fill-opacity:1.0000; stroke:none;fill-rule:evenodd;"
d="M 48.0500,27.4500
48.0500,29.1500
45.5500,29.1500
45.5500,27.4500
Z" /> 
<path style="fill:#000000; fill-opacity:1.0000; stroke:none;fill-rule:evenodd;"
d="M 9.1000,19.3344
9.1000,17.6344
10.5000,17.6344
10.5000,19.3344
Z" /> 
<path style="fill:#000000; fill-opacity:1.0000; stroke:none;fill-rule:evenodd;"
d="M 5.7000,19.3344
5.7000,17.6344
7.1000,17.6344
7.1000,19.3344
Z" /> 
<path style="fill:#000000; fill-opacity:1.0000; stroke:none;fill-rule:evenodd;"
d="M 9.2000,10.3500
9.2000,8.6500
10.6000,8.6500
10.6000,10.3500
Z" /> 
<path style="fill:#000000; fill-opacity:1.0000; stroke:none;fill-rule:evenodd;"
d="M 5.8000,10.3500
5.8000,8.6500
7.2000,8.6500
7.2000,10.3500
Z" /> 
<path style="fill:#000000; fill-opacity:1.0000; stroke:none;fill-rule:evenodd;"
d="M 33.1700,14.0500
31.4700,14.0500
31.4700,11.5500
33.1700,11.5500
Z" /> 
<path style="fill:#000000; fill-opacity:1.0000; stroke:none;fill-rule:evenodd;"
d="M 30.6300,14.0500
28.9300,14.0500
28.9300,11.5500
30.6300,11.5500
Z" /> 
<path style="fill:#000000; fill-opacity:1.0000; stroke:none;fill-rule:evenodd;"
d="M 28.0900,14.0500
26.3900,14.0500
26.3900,11.5500
28.0900,11.5500
Z" /> 
<path style="fill:#000000; fill-opacity:1.0000; stroke:none;fill-rule:evenodd;"
d="M 25.5500,14.0500
23.8500,14.0500
23.8500,11.5500
25.5500,11.5500
Z" /> 
</g>
<g style="fill:none; 
stroke:#000000; stroke-width:0.7000; stroke-opacity:1; 
stroke-linecap:round; stroke-linejoin:round;">
<path d="M45.7000 28.3000
L37.5000 36.5000
" />
<path d="M46.8000 28.3000
L45.7000 28.3000
" />
<path d="M33.9000 14.3800
L32.3200 12.8000
" />
<path d="M33.9000 26.9500
L33.9000 14.3800
" />
<path d="M32.7500 28.1000
L33.9000 26.9500
" />
<path d="M30.8000 28.1000
L32.7500 28.1000
" />
<path d="M29.7800 14.7500
L29.7800 12.8000
" />
<path d="M32.8000 17.7700
L29.7800 14.7500
" />
<path d="M32.8000 22.9700
L32.8000 17.7700
" />
<path d="M32.7500 23.0200
L32.8000 22.9700
" />
<path d="M30.8000 23.0200
L32.7500 23.0200
" />
<path d="M30.8000 20.4800
L27.2400 16.9200
" />
<path d="M27.2400 16.9200
L27.2400 12.8000
" />
<path d="M25.8000 32.7500
L23.6500 34.9000
" />
<path d="M23.6500 34.9000
L23.6500 38.5000
" />
<path d="M26.3000 14.8000
L25.8000 15.3000
" />
<path d="M25.8000 15.3000
L25.8000 32.7500
" />
<path d="M26.3000 13.7400
L26.3000 14.8000
" />
<path d="M27.2400 12.8000
L26.3000 13.7400
" />
<path d="M45.7400 20.6800
L46.8000 20.6800
" />
<path d="M38.3200 28.1000
L45.7400 20.6800
" />
<path d="M30.8000 28.1000
L38.3200 28.1000
" />
<path d="M28.5000 35.5000
L29.5000 36.5000
" />
<path d="M28.5000 25.9100
L28.5000 35.5000
" />
<path d="M28.8500 25.5600
L28.5000 25.9100
" />
<path d="M30.8000 25.5600
L28.8500 25.5600
" />
<path d="M4.5000 16.5844
L4.5000 7.3844
" />
<path d="M24.7000 10.8500
L24.7000 12.8000
" />
<path d="M21.6700 27.7900
L22.2000 28.3200
" />
<path d="M22.2000 28.3200
L24.1500 28.3200
" />
<path d="M49.9000 18.6244
L44.7756 13.5000
" />
<path d="M6.2000 27.7900
L7.2600 27.7900
" />
<path d="M21.7000 36.5000
L21.7000 28.8200
" />
<path d="M21.7000 28.8200
L22.2000 28.3200
" />
<path d="M35.0200 12.0200
L35.0200 10.3444
" />
<path d="M47.7400 24.8200
L48.7056 24.8200
" />
<path d="M8.2000 20.2844
L6.4000 18.4844
" />
<path d="M25.8500 9.7000
L24.7000 10.8500
" />
<path d="M24.7000 27.7700
L24.7000 12.8000
" />
<path d="M8.2000 26.8500
L8.2000 20.2844
" />
<path d="M46.8000 25.7600
L47.7400 24.8200
" />
<path d="M48.7056 24.8200
L49.9000 23.6256
" />
<path d="M6.4000 18.4844
L4.5000 16.5844
" />
<path d="M6.2000 27.7900
L21.6700 27.7900
" />
<path d="M7.2600 27.7900
L8.2000 26.8500
" />
<path d="M4.5000 7.3844
L6.4000 5.4844
" />
<path d="M24.1500 28.3200
L24.7000 27.7700
" />
<path d="M49.9000 23.6256
L49.9000 18.6244
" />
<path d="M36.5000 13.5000
L35.0200 12.0200
" />
<path d="M44.7756 13.5000
L36.5000 13.5000
" />
<path d="M35.0200 10.3444
L34.3756 9.7000
" />
<path d="M34.3756 9.7000
L25.8500 9.7000
" />
<path d="M9.8000 16.8206
L6.5000 13.5206
" />
<path d="M9.8000 18.4844
L9.8000 16.8206
" />
<path d="M9.8000 6.2000
L6.5000 9.5000
" />
<path d="M9.8000 5.4844
L9.8000 6.2000
" />
<path d="M48.8000 19.0800
L48.8000 23.1700
" />
<path d="M33.9200 10.8000
L33.9200 12.4756
" />
<path d="M29.7800 11.7400
L30.7200 10.8000
" />
<path d="M45.3200 15.6000
L48.8000 19.0800
" />
<path d="M29.7800 12.8000
L29.7800 11.7400
" />
<path d="M33.9200 12.4756
L37.0444 15.6000
" />
<path d="M48.8000 23.1700
L48.7500 23.2200
" />
<path d="M37.0444 15.6000
L45.3200 15.6000
" />
<path d="M48.7500 23.2200
L46.8000 23.2200
" />
<path d="M30.7200 10.8000
L33.9200 10.8000
" />
<path d="M3.5000 25.6950
L3.5000 30.5000
" />
<path d="M19.5000 37.3500
L20.6500 38.5000
" />
<path d="M3.9450 25.2500
L3.5000 25.6950
" />
<path d="M6.2000 25.2500
L3.9450 25.2500
" />
<path d="M20.6500 38.5000
L35.5000 38.5000
" />
<path d="M19.5000 30.5000
L19.5000 37.3500
" />
<path d="M3.5000 30.5000
L19.5000 30.5000
" />
<path d="M35.5000 38.5000
L37.5000 36.5000
" />
<path d="M25.1000 36.5000
L29.5000 36.5000
" />
<path d="M13.5000 17.1206
L9.9000 13.5206
" />
<path d="M16.0350 21.5000
L13.5000 21.5000
" />
<path d="M22.2000 25.7800
L20.3150 25.7800
" />
<path d="M13.5000 21.5000
L13.5000 17.1206
" />
<path d="M20.3150 25.7800
L16.0350 21.5000
" />
<path d="M15.4000 20.4000
L15.4000 15.0000
" />
<path d="M22.2000 23.2400
L20.2500 23.2400
" />
<path d="M17.4100 20.4000
L15.4000 20.4000
" />
<path d="M15.4000 15.0000
L9.9000 9.5000
" />
<path d="M20.2500 23.2400
L17.4100 20.4000
" />
</g> 
</svg>
