<?xml version="1.0" standalone="no"?>
 <!DOCTYPE svg PUBLIC "-//W3C//DTD SVG 1.1//EN" 
 "http://www.w3.org/Graphics/SVG/1.1/DTD/svg11.dtd"> 
<svg
  xmlns:svg="http://www.w3.org/2000/svg"
  xmlns="http://www.w3.org/2000/svg"
  xmlns:xlink="http://www.w3.org/1999/xlink"
  version="1.1"
  width="77.7240mm" height="55.6260mm" viewBox="0.0000 0.0000 77.7240 55.6260">
<title>SVG Image created as xiao esp32-F_Cu.svg date 2024/04/26 16:51:39 </title>
  <desc>Image generated by PCBNEW </desc>
<g style="fill:#000000; fill-opacity:1.0000;stroke:#000000; stroke-opacity:1.0000;
stroke-linecap:round; stroke-linejoin:round;"
 transform="translate(0 0) scale(1 1)">
<path style="fill:#000000; fill-opacity:1.0000; stroke:none;fill-rule:evenodd;"
d="M 52.8369,29.4500
54.5369,29.4500
54.5369,30.8500
52.8369,30.8500
Z" /> 
<path style="fill:#000000; fill-opacity:1.0000; stroke:none;fill-rule:evenodd;"
d="M 52.8369,26.0500
54.5369,26.0500
54.5369,27.4500
52.8369,27.4500
Z" /> 
<path style="fill:#000000; fill-opacity:1.0000; stroke:none;fill-rule:evenodd;"
d="M 54.5369,34.7500
52.8369,34.7500
52.8369,33.3500
54.5369,33.3500
Z" /> 
<path style="fill:#000000; fill-opacity:1.0000; stroke:none;fill-rule:evenodd;"
d="M 54.5369,38.1500
52.8369,38.1500
52.8369,36.7500
54.5369,36.7500
Z" /> 
</g>
<g style="fill:#000000; fill-opacity:1.0000; stroke:none;">
<circle cx="30.6869" cy="8.2900" r="0.8000" /> 
<path style="fill:#000000; fill-opacity:1.0000; stroke:none;fill-rule:evenodd;"
d="M 28.1869,9.0900
28.1869,7.4900
31.1869,7.4900
31.1869,9.0900
Z" /> 
</g>
<g style="fill:#000000; fill-opacity:1.0000; stroke:none;">
<circle cx="30.6869" cy="10.8300" r="0.8000" /> 
<path style="fill:#000000; fill-opacity:1.0000; stroke:none;fill-rule:evenodd;"
d="M 28.1869,11.6300
28.1869,10.0300
31.1869,10.0300
31.1869,11.6300
Z" /> 
</g>
<g style="fill:#000000; fill-opacity:1.0000; stroke:none;">
<circle cx="30.6869" cy="13.3700" r="0.8000" /> 
<path style="fill:#000000; fill-opacity:1.0000; stroke:none;fill-rule:evenodd;"
d="M 28.1869,14.1700
28.1869,12.5700
31.1869,12.5700
31.1869,14.1700
Z" /> 
</g>
<g style="fill:#000000; fill-opacity:1.0000; stroke:none;">
<circle cx="30.6869" cy="15.9100" r="0.8000" /> 
<path style="fill:#000000; fill-opacity:1.0000; stroke:none;fill-rule:evenodd;"
d="M 28.1869,16.7100
28.1869,15.1100
31.1869,15.1100
31.1869,16.7100
Z" /> 
</g>
<g style="fill:#000000; fill-opacity:1.0000; stroke:none;">
<circle cx="30.6869" cy="18.4500" r="0.8000" /> 
<path style="fill:#000000; fill-opacity:1.0000; stroke:none;fill-rule:evenodd;"
d="M 28.1869,19.2500
28.1869,17.6500
31.1869,17.6500
31.1869,19.2500
Z" /> 
</g>
<g style="fill:#000000; fill-opacity:1.0000; stroke:none;">
<circle cx="30.6869" cy="20.9900" r="0.8000" /> 
<path style="fill:#000000; fill-opacity:1.0000; stroke:none;fill-rule:evenodd;"
d="M 28.1869,21.7900
28.1869,20.1900
31.1869,20.1900
31.1869,21.7900
Z" /> 
</g>
<g style="fill:#000000; fill-opacity:1.0000; stroke:none;">
<circle cx="30.6869" cy="23.5300" r="0.8000" /> 
<path style="fill:#000000; fill-opacity:1.0000; stroke:none;fill-rule:evenodd;"
d="M 28.1869,24.3300
28.1869,22.7300
31.1869,22.7300
31.1869,24.3300
Z" /> 
</g>
<g style="fill:#000000; fill-opacity:1.0000; stroke:none;">
<circle cx="45.9219" cy="23.5300" r="0.8000" /> 
<path style="fill:#000000; fill-opacity:1.0000; stroke:none;fill-rule:evenodd;"
d="M 45.4219,24.3300
45.4219,22.7300
48.4219,22.7300
48.4219,24.3300
Z" /> 
</g>
<g style="fill:#000000; fill-opacity:1.0000; stroke:none;">
<circle cx="45.9219" cy="20.9900" r="0.8000" /> 
<path style="fill:#000000; fill-opacity:1.0000; stroke:none;fill-rule:evenodd;"
d="M 45.4219,21.7900
45.4219,20.1900
48.4219,20.1900
48.4219,21.7900
Z" /> 
</g>
<g style="fill:#000000; fill-opacity:1.0000; stroke:none;">
<circle cx="45.9219" cy="18.4500" r="0.8000" /> 
<path style="fill:#000000; fill-opacity:1.0000; stroke:none;fill-rule:evenodd;"
d="M 45.4219,19.2500
45.4219,17.6500
48.4219,17.6500
48.4219,19.2500
Z" /> 
</g>
<g style="fill:#000000; fill-opacity:1.0000; stroke:none;">
<circle cx="45.9219" cy="15.9100" r="0.8000" /> 
<path style="fill:#000000; fill-opacity:1.0000; stroke:none;fill-rule:evenodd;"
d="M 45.4219,16.7100
45.4219,15.1100
48.4219,15.1100
48.4219,16.7100
Z" /> 
</g>
<g style="fill:#000000; fill-opacity:1.0000; stroke:none;">
<circle cx="45.9219" cy="13.3700" r="0.8000" /> 
<path style="fill:#000000; fill-opacity:1.0000; stroke:none;fill-rule:evenodd;"
d="M 45.4219,14.1700
45.4219,12.5700
48.4219,12.5700
48.4219,14.1700
Z" /> 
</g>
<g style="fill:#000000; fill-opacity:1.0000; stroke:none;">
<circle cx="45.9219" cy="10.8300" r="0.8000" /> 
<path style="fill:#000000; fill-opacity:1.0000; stroke:none;fill-rule:evenodd;"
d="M 45.4219,11.6300
45.4219,10.0300
48.4219,10.0300
48.4219,11.6300
Z" /> 
</g>
<g style="fill:#000000; fill-opacity:1.0000; stroke:none;">
<circle cx="45.9219" cy="8.2900" r="0.8000" /> 
<path style="fill:#000000; fill-opacity:1.0000; stroke:none;fill-rule:evenodd;"
d="M 45.4219,9.0900
45.4219,7.4900
48.4219,7.4900
48.4219,9.0900
Z" /> 
<path style="fill:#000000; fill-opacity:1.0000; stroke:none;fill-rule:evenodd;"
d="M 32.5019,14.2100
32.5019,13.0100
34.9019,13.0100
34.9019,14.2100
Z" /> 
<path style="fill:#000000; fill-opacity:1.0000; stroke:none;fill-rule:evenodd;"
d="M 32.5019,16.3100
32.5019,15.1100
34.9019,15.1100
34.9019,16.3100
Z" /> 
</g>
<g style="fill:#000000; fill-opacity:1.0000; stroke:none;">
<circle cx="37.0319" cy="7.2300" r="0.6000" /> 
</g>
<g style="fill:#000000; fill-opacity:1.0000; stroke:none;">
<circle cx="37.0319" cy="9.7700" r="0.6000" /> 
</g>
<g style="fill:#000000; fill-opacity:1.0000; stroke:none;">
<circle cx="37.0319" cy="12.3100" r="0.6000" /> 
</g>
<g style="fill:#000000; fill-opacity:1.0000; stroke:none;">
<circle cx="39.5719" cy="12.3100" r="0.6000" /> 
</g>
<g style="fill:#000000; fill-opacity:1.0000; stroke:none;">
<circle cx="39.5719" cy="9.7700" r="0.6000" /> 
</g>
<g style="fill:#000000; fill-opacity:1.0000; stroke:none;">
<circle cx="39.5719" cy="7.2300" r="0.6000" /> 
<path style="fill:#000000; fill-opacity:1.0000; stroke:none;fill-rule:evenodd;"
d="M 39.3019,18.1600
39.3019,15.1600
42.3019,15.1600
42.3019,18.1600
Z" /> 
<path style="fill:#000000; fill-opacity:1.0000; stroke:none;fill-rule:evenodd;"
d="M 63.2369,37.5500
63.2369,39.2500
60.7369,39.2500
60.7369,37.5500
Z" /> 
<path style="fill:#000000; fill-opacity:1.0000; stroke:none;fill-rule:evenodd;"
d="M 63.2369,35.0100
63.2369,36.7100
60.7369,36.7100
60.7369,35.0100
Z" /> 
<path style="fill:#000000; fill-opacity:1.0000; stroke:none;fill-rule:evenodd;"
d="M 63.2369,32.4700
63.2369,34.1700
60.7369,34.1700
60.7369,32.4700
Z" /> 
<path style="fill:#000000; fill-opacity:1.0000; stroke:none;fill-rule:evenodd;"
d="M 63.2369,29.9300
63.2369,31.6300
60.7369,31.6300
60.7369,29.9300
Z" /> 
<path style="fill:#000000; fill-opacity:1.0000; stroke:none;fill-rule:evenodd;"
d="M 63.2369,27.3900
63.2369,29.0900
60.7369,29.0900
60.7369,27.3900
Z" /> 
<path style="fill:#000000; fill-opacity:1.0000; stroke:none;fill-rule:evenodd;"
d="M 63.2369,24.8500
63.2369,26.5500
60.7369,26.5500
60.7369,24.8500
Z" /> 
<path style="fill:#000000; fill-opacity:1.0000; stroke:none;fill-rule:evenodd;"
d="M 62.9369,17.2000
62.9369,18.9000
60.4369,18.9000
60.4369,17.2000
Z" /> 
<path style="fill:#000000; fill-opacity:1.0000; stroke:none;fill-rule:evenodd;"
d="M 62.9369,14.6600
62.9369,16.3600
60.4369,16.3600
60.4369,14.6600
Z" /> 
<path style="fill:#000000; fill-opacity:1.0000; stroke:none;fill-rule:evenodd;"
d="M 62.9369,12.1200
62.9369,13.8200
60.4369,13.8200
60.4369,12.1200
Z" /> 
<path style="fill:#000000; fill-opacity:1.0000; stroke:none;fill-rule:evenodd;"
d="M 62.9369,9.5800
62.9369,11.2800
60.4369,11.2800
60.4369,9.5800
Z" /> 
<path style="fill:#000000; fill-opacity:1.0000; stroke:none;fill-rule:evenodd;"
d="M 62.9369,7.0400
62.9369,8.7400
60.4369,8.7400
60.4369,7.0400
Z" /> 
<path style="fill:#000000; fill-opacity:1.0000; stroke:none;fill-rule:evenodd;"
d="M 62.9369,4.5000
62.9369,6.2000
60.4369,6.2000
60.4369,4.5000
Z" /> 
<path style="fill:#000000; fill-opacity:1.0000; stroke:none;fill-rule:evenodd;"
d="M 67.4369,31.3600
67.4369,29.6600
69.9369,29.6600
69.9369,31.3600
Z" /> 
<path style="fill:#000000; fill-opacity:1.0000; stroke:none;fill-rule:evenodd;"
d="M 67.4369,33.9000
67.4369,32.2000
69.9369,32.2000
69.9369,33.9000
Z" /> 
<path style="fill:#000000; fill-opacity:1.0000; stroke:none;fill-rule:evenodd;"
d="M 67.4369,36.4400
67.4369,34.7400
69.9369,34.7400
69.9369,36.4400
Z" /> 
<path style="fill:#000000; fill-opacity:1.0000; stroke:none;fill-rule:evenodd;"
d="M 67.4369,38.9800
67.4369,37.2800
69.9369,37.2800
69.9369,38.9800
Z" /> 
<path style="fill:#000000; fill-opacity:1.0000; stroke:none;fill-rule:evenodd;"
d="M 66.4369,9.3600
66.4369,7.6600
68.9369,7.6600
68.9369,9.3600
Z" /> 
<path style="fill:#000000; fill-opacity:1.0000; stroke:none;fill-rule:evenodd;"
d="M 66.4369,11.9000
66.4369,10.2000
68.9369,10.2000
68.9369,11.9000
Z" /> 
<path style="fill:#000000; fill-opacity:1.0000; stroke:none;fill-rule:evenodd;"
d="M 66.4369,14.4400
66.4369,12.7400
68.9369,12.7400
68.9369,14.4400
Z" /> 
<path style="fill:#000000; fill-opacity:1.0000; stroke:none;fill-rule:evenodd;"
d="M 66.4369,16.9800
66.4369,15.2800
68.9369,15.2800
68.9369,16.9800
Z" /> 
<path style="fill:#000000; fill-opacity:1.0000; stroke:none;fill-rule:evenodd;"
d="M 45.1869,40.7900
43.4869,40.7900
43.4869,38.2900
45.1869,38.2900
Z" /> 
<path style="fill:#000000; fill-opacity:1.0000; stroke:none;fill-rule:evenodd;"
d="M 42.6469,40.7900
40.9469,40.7900
40.9469,38.2900
42.6469,38.2900
Z" /> 
<path style="fill:#000000; fill-opacity:1.0000; stroke:none;fill-rule:evenodd;"
d="M 40.1069,40.7900
38.4069,40.7900
38.4069,38.2900
40.1069,38.2900
Z" /> 
<path style="fill:#000000; fill-opacity:1.0000; stroke:none;fill-rule:evenodd;"
d="M 37.5669,40.7900
35.8669,40.7900
35.8669,38.2900
37.5669,38.2900
Z" /> 
<path style="fill:#000000; fill-opacity:1.0000; stroke:none;fill-rule:evenodd;"
d="M 35.0269,40.7900
33.3269,40.7900
33.3269,38.2900
35.0269,38.2900
Z" /> 
<path style="fill:#000000; fill-opacity:1.0000; stroke:none;fill-rule:evenodd;"
d="M 32.4869,40.7900
30.7869,40.7900
30.7869,38.2900
32.4869,38.2900
Z" /> 
<path style="fill:#000000; fill-opacity:1.0000; stroke:none;fill-rule:evenodd;"
d="M 17.1369,13.7400
17.1369,12.0400
19.6369,12.0400
19.6369,13.7400
Z" /> 
<path style="fill:#000000; fill-opacity:1.0000; stroke:none;fill-rule:evenodd;"
d="M 17.1369,16.2800
17.1369,14.5800
19.6369,14.5800
19.6369,16.2800
Z" /> 
<path style="fill:#000000; fill-opacity:1.0000; stroke:none;fill-rule:evenodd;"
d="M 17.1369,18.8200
17.1369,17.1200
19.6369,17.1200
19.6369,18.8200
Z" /> 
<path style="fill:#000000; fill-opacity:1.0000; stroke:none;fill-rule:evenodd;"
d="M 17.1369,21.3600
17.1369,19.6600
19.6369,19.6600
19.6369,21.3600
Z" /> 
<path style="fill:#000000; fill-opacity:1.0000; stroke:none;fill-rule:evenodd;"
d="M 17.1369,23.9000
17.1369,22.2000
19.6369,22.2000
19.6369,23.9000
Z" /> 
</g>
<g style="fill:none; 
stroke:#000000; stroke-width:0.7000; stroke-opacity:1; 
stroke-linecap:round; stroke-linejoin:round;">
<path d="M61.0369 37.4500
L61.9869 38.4000
" />
<path d="M53.6869 37.4500
L61.0369 37.4500
" />
<path d="M52.0719 26.7500
L51.3719 26.0500
" />
<path d="M51.3719 26.0500
L51.3719 19.1000
" />
<path d="M51.3719 31.0500
L51.3719 26.0500
" />
<path d="M53.6869 26.7500
L52.0719 26.7500
" />
<path d="M53.6869 34.0500
L53.6869 30.1500
" />
<path d="M51.3719 32.5050
L51.3719 31.0500
" />
<path d="M48.1819 13.3700
L45.9219 13.3700
" />
<path d="M67.6869 16.1300
L64.1669 19.6500
" />
<path d="M64.1669 19.6500
L54.4619 19.6500
" />
<path d="M54.4619 19.6500
L48.1819 13.3700
" />
<path d="M67.6869 13.5900
L67.6869 16.1300
" />
<path d="M67.6869 11.0500
L62.3069 11.0500
" />
<path d="M62.3069 11.0500
L61.6869 10.4300
" />
<path d="M62.3069 8.5100
L61.6869 7.8900
" />
<path d="M67.6869 8.5100
L62.3069 8.5100
" />
<path d="M61.6869 18.0500
L61.6869 15.5100
" />
<path d="M61.6869 15.5100
L61.6869 12.9700
" />
<path d="M61.6869 12.9700
L61.6869 10.4300
" />
<path d="M61.6869 10.4300
L61.6869 7.8900
" />
<path d="M59.3269 7.8900
L61.6869 7.8900
" />
<path d="M58.9269 8.2900
L59.3269 7.8900
" />
<path d="M58.7469 8.2900
L58.9269 8.2900
" />
<path d="M58.7469 8.2900
L61.6869 5.3500
" />
<path d="M45.9219 8.2900
L58.7469 8.2900
" />
<path d="M69.6869 18.0000
L61.9869 25.7000
" />
<path d="M65.8269 3.0500
L69.6869 6.9100
" />
<path d="M46.6869 3.0500
L65.8269 3.0500
" />
<path d="M69.6869 6.9100
L69.6869 18.0000
" />
<path d="M44.3719 5.3650
L46.6869 3.0500
" />
<path d="M44.3719 9.2800
L44.3719 5.3650
" />
<path d="M45.9219 10.8300
L44.3719 9.2800
" />
<path d="M68.4169 30.7800
L68.6869 30.5100
" />
<path d="M61.9869 30.7800
L68.4169 30.7800
" />
<path d="M68.4169 33.3200
L68.6869 33.0500
" />
<path d="M61.9869 33.3200
L68.4169 33.3200
" />
<path d="M68.4169 35.8600
L68.6869 35.5900
" />
<path d="M61.9869 35.8600
L68.4169 35.8600
" />
<path d="M62.2569 38.1300
L61.9869 38.4000
" />
<path d="M68.6869 38.1300
L62.2569 38.1300
" />
<path d="M61.9869 28.2400
L61.9869 25.7000
" />
<path d="M61.9869 30.7800
L61.9869 28.2400
" />
<path d="M61.9869 33.3200
L61.9869 30.7800
" />
<path d="M61.9869 33.3200
L61.9869 35.8600
" />
<path d="M61.9869 38.4000
L61.9869 35.8600
" />
<path d="M36.7169 36.0200
L45.9219 26.8150
" />
<path d="M45.9219 26.8150
L45.9219 23.5300
" />
<path d="M36.7169 39.5400
L36.7169 36.0200
" />
<path d="M48.1819 15.9100
L45.9219 15.9100
" />
<path d="M51.3719 19.1000
L48.1819 15.9100
" />
<path d="M44.3369 39.5400
L51.3719 32.5050
" />
<path d="M50.2719 26.6406
L50.2719 20.6350
" />
<path d="M48.0869 18.4500
L45.9219 18.4500
" />
<path d="M41.7969 35.1156
L50.2719 26.6406
" />
<path d="M50.2719 20.6350
L48.0869 18.4500
" />
<path d="M41.7969 39.5400
L41.7969 35.1156
" />
<path d="M48.1819 20.9900
L45.9219 20.9900
" />
<path d="M49.1719 21.9800
L48.1819 20.9900
" />
<path d="M49.1719 26.1850
L49.1719 21.9800
" />
<path d="M39.2569 36.1000
L49.1719 26.1850
" />
<path d="M39.2569 39.5400
L39.2569 36.1000
" />
<path d="M34.1769 38.4800
L34.1769 39.5400
" />
<path d="M30.6869 34.9900
L34.1769 38.4800
" />
<path d="M30.6869 23.5300
L30.6869 34.9900
" />
<path d="M26.6869 34.5900
L31.6369 39.5400
" />
<path d="M26.6869 22.7300
L26.6869 34.5900
" />
<path d="M28.4269 20.9900
L26.6869 22.7300
" />
<path d="M30.6869 20.9900
L28.4269 20.9900
" />
<path d="M27.2869 18.4500
L30.6869 18.4500
" />
<path d="M22.6869 23.0500
L27.2869 18.4500
" />
<path d="M18.3869 23.0500
L22.6869 23.0500
" />
<path d="M26.8269 15.9100
L30.6869 15.9100
" />
<path d="M22.2269 20.5100
L26.8269 15.9100
" />
<path d="M18.3869 20.5100
L22.2269 20.5100
" />
<path d="M21.7669 17.9700
L26.3669 13.3700
" />
<path d="M18.3869 17.9700
L21.7669 17.9700
" />
<path d="M26.3669 13.3700
L30.6869 13.3700
" />
<path d="M24.9069 10.8300
L30.6869 10.8300
" />
<path d="M20.3069 15.4300
L24.9069 10.8300
" />
<path d="M18.3869 15.4300
L20.3069 15.4300
" />
<path d="M22.9869 8.2900
L30.6869 8.2900
" />
<path d="M18.3869 12.8900
L22.9869 8.2900
" />
</g>
<g style="fill:#FFFFFF; fill-opacity:1.0000; stroke:none;">
<circle cx="30.6869" cy="8.2900" r="0.4000" /> 
</g>
<g style="fill:#FFFFFF; fill-opacity:1.0000; stroke:none;">
<circle cx="30.6869" cy="10.8300" r="0.4000" /> 
</g>
<g style="fill:#FFFFFF; fill-opacity:1.0000; stroke:none;">
<circle cx="30.6869" cy="13.3700" r="0.4000" /> 
</g>
<g style="fill:#FFFFFF; fill-opacity:1.0000; stroke:none;">
<circle cx="30.6869" cy="15.9100" r="0.4000" /> 
</g>
<g style="fill:#FFFFFF; fill-opacity:1.0000; stroke:none;">
<circle cx="30.6869" cy="18.4500" r="0.4000" /> 
</g>
<g style="fill:#FFFFFF; fill-opacity:1.0000; stroke:none;">
<circle cx="30.6869" cy="20.9900" r="0.4000" /> 
</g>
<g style="fill:#FFFFFF; fill-opacity:1.0000; stroke:none;">
<circle cx="30.6869" cy="23.5300" r="0.4000" /> 
</g>
<g style="fill:#FFFFFF; fill-opacity:1.0000; stroke:none;">
<circle cx="45.9219" cy="23.5300" r="0.4000" /> 
</g>
<g style="fill:#FFFFFF; fill-opacity:1.0000; stroke:none;">
<circle cx="45.9219" cy="20.9900" r="0.4000" /> 
</g>
<g style="fill:#FFFFFF; fill-opacity:1.0000; stroke:none;">
<circle cx="45.9219" cy="18.4500" r="0.4000" /> 
</g>
<g style="fill:#FFFFFF; fill-opacity:1.0000; stroke:none;">
<circle cx="45.9219" cy="15.9100" r="0.4000" /> 
</g>
<g style="fill:#FFFFFF; fill-opacity:1.0000; stroke:none;">
<circle cx="45.9219" cy="13.3700" r="0.4000" /> 
</g>
<g style="fill:#FFFFFF; fill-opacity:1.0000; stroke:none;">
<circle cx="45.9219" cy="10.8300" r="0.4000" /> 
</g>
<g style="fill:#FFFFFF; fill-opacity:1.0000; stroke:none;">
<circle cx="45.9219" cy="8.2900" r="0.4000" /> 
</g> 
</svg>
